<?xml version="1.0" encoding="utf-8"?>
<!-- Generator: Adobe Illustrator 23.0.1, SVG Export Plug-In . SVG Version: 6.00 Build 0)  -->
<svg version="1.1" id="Layer_1" xmlns="http://www.w3.org/2000/svg" xmlns:xlink="http://www.w3.org/1999/xlink" x="0px" y="0px"
	 viewBox="0 0 300 300" style="enable-background:new 0 0 300 300;" xml:space="preserve">
<style type="text/css">
	.st0{fill:#FAD9D0;}
	.st1{fill:#BF5053;}
	.st2{fill:#F1E0DA;}
	.st3{fill:#F5DDD6;}
	.st4{fill:#7E3235;}
	.st5{fill:#2D180F;}
	.st6{fill:#683722;}
	.st7{fill:#462517;}
	.st8{fill:#492718;}
	.st9{opacity:0.1797;fill:#492718;}
	.st10{fill:#C17A28;}
	.st11{fill:#A16C3C;}
	.st12{fill:#9A6B47;}
</style>
<g id="XMLID_81_">
	<path id="XMLID_13_" class="st0" d="M222.51,215.91c0,0,10.33,1.59,24.33-15.66c14-17.25,9.5-32.75,9.5-32.75s-1.75-8.5-6.5-12.5
		s-15.5,0-16.75,5C233.08,160,211.68,176.32,222.51,215.91z"/>
	<path id="XMLID_61_" class="st1" d="M226.02,179.59c0,0,6.58,0.17,8.92,3.17s2.17,8.25,2.17,8.25s-2.08,9.67-8.67,8.5
		c-6.58-1.17-3.53-5.42-3.53-5.42s1.61-2.32,1.28-4.49c-0.33-2.17-1.42-4.09-1.83-4.76C223.94,184.17,225.19,179.53,226.02,179.59z"
		/>
	<path id="XMLID_50_" class="st1" d="M245.86,161.25c3.82,3.01,8.75,7.33,5.17,18.75c-3.58,11.42-14.77,24.25-14.77,24.25
		s-4.82,2.33-4.65,0.58c0.17-1.75,3.75-3.25,3.75-3.25s3,0,3-2.67c0-2.67,2.27-4.87,3.39-6.25
		C258.82,171.65,240.44,156.99,245.86,161.25z"/>
</g>
<path id="XMLID_7_" class="st2" d="M151.08,295.25c0,0-22.75,7.5-49-27.5s-25.25-46.5-25.25-46.5s-2.75-38-7.75-43.5
	s0.75-70.25,11.25-93.25s43-31.25,43-31.25S179.58,44,201.83,66s24.5,61,24.5,61s1.25,44.75,0,52.5s-2.25,48.25-14.75,65.5
	S183.83,293.5,151.08,295.25z"/>
<path id="XMLID_11_" class="st3" d="M149.95,66.67c0,0,2.86,19.25-6.88,20.62c-9.74,1.38-28.41,0.71-24.74,9.71
	c3.67,9,19.48,18.42,21.74,23.55c2.26,5.12,6.26,17.79,6.26,20.95s5.26,25.58,1,37.1c-4.26,11.52-1,14.4-1,14.4s0.33,1.17,2.5,1
	c2.17-0.17,7.25-1.5,7.25-1.5s4.83-0.38,6.5,1.52c1.67,1.9,5.33,1.82,5.33,1.82s3.83-0.42,4-1c0.17-0.58,3.17-0.58,3.17,1
	s-2.83,7.75-4.75,9.33c-1.92,1.58-9.25,7.75-11.58,8.5s-7.5,3-11.92,2.33c-4.42-0.67-14.25-2.67-16.58-4.25
	c-2.33-1.58-6.5-1.83-6.42-1c0.08,0.83-7.08,0.83-8.58-0.67s-1.5-2.67-3.75-2.58s-6.58-2.5-7.5-0.58c-0.92,1.92,0.5-2.92,0.5-2.92
	s-10.25,9.24-10.25,12.12s-3.92,0.96-3.92,0.96S80,203.17,80.75,198.42s-0.92-8.81-0.92-8.81s-8.4-11.32-6.57-12.99
	c1.83-1.67,2.73-17.04,2.73-17.04s1.61-35.33,6.18-39.04c4.57-3.71-2.6-23.13-2.6-23.13s-4.67-7.33,0-11.92
	c4.67-4.58,13.47-17.97,13.47-17.97S128.57,44.83,149.95,66.67z"/>
<path id="XMLID_1_" class="st3" d="M67.26,150.75c0,0-13.42-3-18.92,3.5s-8.75,18.5-6.75,23.75s5,11.5,4.25,16.75
	s12.25,12.75,12.25,12.75s11.39,10.6,17.69,5.18C82.08,207.25,67.26,150.75,67.26,150.75z"/>
<path id="XMLID_17_" class="st4" d="M68.65,196.33l-0.92-3.5c0,0-17.42,4.67-9.17-13.5s10.75,0.42,10.75,0.42s-3.5,3.75-2.17,7.25
	s3.58,10.5,3.58,10.5L68.65,196.33z"/>
<path id="XMLID_51_" class="st4" d="M60.56,201c0,0-9.75-2.08-9.66-8.83s-4.17-9.69-4.17-9.69s-3.08-3.89-1.5-8.47
	c1.58-4.58,2.85-16.52,5.24-15.76c2.38,0.77-7.62,18.59,0.51,26.76c1.9,1.91,0.42,6.46,0.42,6.46s1,4.38,4.58,5.62
	C59.56,198.33,64.39,197.41,60.56,201z"/>
<path id="XMLID_71_" class="st0" d="M74.83,178.17c0,0,0.58,5.83,5.42,9C85.08,190.33,95.5,201,91,215.25s15.25,36.83,15.25,36.83
	s16.58,31.75,16.75,35.42s-13.67-9.33-13.67-9.33S85.17,251,83.83,246.33c-1.33-4.67-7.66-17.5-7.49-22.33s-1.64-25.84-2.99-26
	c-1.35-0.16-9.88-20.46-8.28-22.64c1.6-2.19,0.1-6.99,0.1-6.99S65,160,66.67,156.33c1.67-3.67-0.46-26.3,2.6-28.65
	c3.06-2.35,5.23-23.35,5.23-23.35s1-15.94,2.83-14.8c1.83,1.14,5.25,15.97,5.25,15.97s5.75,4.38,1.25,18.52
	c-4.5,14.14-7.82,30.81-7.49,37.81S74.83,178.17,74.83,178.17z"/>
<path id="XMLID_9_" class="st2" d="M138.63,183.05c15.59-31.8-4.87-57.25-4.87-57.25s-3.11-3.49,3.95-2.33
	c7.06,1.16,21.33,46.6,21.5,58.03C159.58,205.75,138.63,183.05,138.63,183.05z"/>
<path id="XMLID_8_" class="st5" d="M174.65,127.38c0,0,10.25-11.25,28-5c17.75,6.25,15.75,14.75,15.75,14.75s-1.04-1.1-2.89-2.51
	c-0.72-0.55-1.57-1.15-2.53-1.75c-2.05-1.28-4.61-2.55-7.55-3.37c-1.12-0.31-2.3-0.55-3.53-0.7c-3.83-0.46-6.58-1.32-9.4-1.98
	c-1.59-0.37-3.2-0.68-5.04-0.82c-1.08-0.08-2.23-0.11-3.5-0.05C181.43,126.06,178.43,126.48,174.65,127.38z"/>
<g id="XMLID_16_">
	<g>
		<g>
			<g>
				<g>
					<path class="st6" d="M214.89,131.39c0.01,0.07,0.33-0.2,0.4-0.24C215.15,131.13,214.81,131.46,214.89,131.39z"/>
					<polygon class="st6" points="213.56,131.24 213.7,131.15 213.29,131.31 					"/>
					<path class="st6" d="M213.01,130.58c-0.48,0.53,0.29,0.15,0.2,0.44l-0.11,0.12l0.48-0.32
						C213.39,130.74,212.96,130.8,213.01,130.58z"/>
					<path class="st6" d="M213.83,129.2c-0.18,0.21-0.25,0.09,0.01,0.14c0.02-0.03,0.03-0.04,0.04-0.06
						C213.86,129.26,213.85,129.24,213.83,129.2z"/>
					<path class="st6" d="M213.88,129.28C213.96,129.33,214.01,129.07,213.88,129.28L213.88,129.28z"/>
					<path class="st6" d="M213.46,129.06l0.27-0.08c0.1-0.13,0.05-0.24,0.16-0.29C213.7,128.69,213.6,128.82,213.46,129.06z"/>
					<path class="st6" d="M213,129.34l0.12-0.03C213.16,129.25,213.17,129.22,213,129.34z"/>
					<path class="st6" d="M213.38,129.26l-0.25,0.05c-0.07,0.09-0.24,0.25,0.1-0.01C213.06,129.44,213.23,129.32,213.38,129.26z"/>
					<path class="st6" d="M213.35,129.39c-0.06,0.16-0.08,0.29-0.34,0.37C213.24,129.86,213.59,129.49,213.35,129.39z"/>
					<path class="st6" d="M212.43,131.04l-0.1,0.2l0.23-0.1C212.45,131.19,212.59,130.89,212.43,131.04z"/>
					<path class="st6" d="M213.17,128.23c-0.11,0.1-0.25,0.32-0.38,0.46l0.19-0.06C213.02,128.52,213.01,128.4,213.17,128.23z"/>
					<path class="st6" d="M212.79,128.69l-0.28,0.09C212.57,128.89,212.68,128.82,212.79,128.69z"/>
					<polygon class="st6" points="212.42,129.87 212.96,129.65 212.38,129.85 					"/>
					<polygon class="st6" points="212.78,127.85 213.08,127.65 212.61,127.94 					"/>
					<path class="st6" d="M212.47,127.65c0.24-0.18,0.27-0.42,0.43-0.51c-0.11-0.03-0.34,0.1-0.54,0.22
						C212.51,127.32,212.55,127.4,212.47,127.65z"/>
					<path class="st6" d="M212.06,127.52c0.08-0.03,0.19-0.09,0.31-0.16C212.29,127.38,212.19,127.42,212.06,127.52z"/>
					<path class="st6" d="M212.38,128.58c0.06-0.07,0.2-0.26,0.22-0.39l-0.25,0.35L212.38,128.58z"/>
					<path class="st6" d="M212.34,128.55l0.01-0.01c-0.03-0.05-0.06-0.08-0.07-0.1C212.29,128.45,212.3,128.48,212.34,128.55z"/>
					<path class="st6" d="M212.39,128.59c0,0-0.01-0.01-0.01-0.01C212.36,128.61,212.35,128.62,212.39,128.59z"/>
					<path class="st6" d="M212.45,129.35c-0.22,0.11-0.51,0.18-0.66,0.55C212.04,129.73,212.12,129.52,212.45,129.35z"/>
					<path class="st6" d="M212.07,129.02l0.04,0.17c0.08-0.08,0.17-0.22,0.28-0.28L212.07,129.02z"/>
					<polygon class="st6" points="211.93,129.07 212.07,129.02 212.06,128.96 					"/>
					<path class="st6" d="M211.98,127.99c-0.17,0.1-0.23,0.06-0.31,0.03c0.01,0.12,0.04,0.21,0.1,0.26
						C211.87,128.2,212.06,128.04,211.98,127.99z"/>
					<path class="st6" d="M212.13,128.29l-0.03,0.01C212.09,128.33,212.08,128.34,212.13,128.29z"/>
					<path class="st6" d="M211.09,127.53c-0.01,0.02-0.03,0.05-0.04,0.07l0.05-0.06L211.09,127.53z"/>
					<path class="st6" d="M211.73,128.36c-0.01,0.1,0.09,0.05,0.2-0.02c-0.06,0-0.12-0.01-0.16-0.04
						C211.73,128.33,211.7,128.36,211.73,128.36z"/>
					<path class="st6" d="M211.76,127.52c-0.03,0.09-0.05,0.17-0.07,0.25C211.76,127.65,211.84,127.45,211.76,127.52z"/>
					<path class="st6" d="M212.17,128.2l0.02-0.01C212.23,128.11,212.21,128.14,212.17,128.2z"/>
					<path class="st6" d="M212.17,128.2c-0.07,0.02-0.15,0.08-0.24,0.14c0.05,0,0.11-0.01,0.17-0.04
						C212.12,128.27,212.15,128.23,212.17,128.2z"/>
					<path class="st6" d="M209.2,129.54c0.25-0.31,0.6-0.5,0.43-0.09c0.29-0.15,1.05-1.21,1.42-1.85c-0.11,0.13-0.21,0.25-0.47,0.35
						c-0.1,0.2-0.08,0.58-0.4,0.79c-0.27,0.05-0.03-0.2,0.04-0.42c-0.25,0.43-0.62,0.42-1.04,1.02l0.27-0.11
						C209.39,129.32,209.23,129.43,209.2,129.54z"/>
					<path class="st6" d="M211.24,127.8l0.08,0c-0.01-0.09,0.06-0.25,0.18-0.54c-0.2,0.09-0.31,0.19-0.4,0.29l0.19,0.22
						L211.24,127.8z"/>
					<path class="st6" d="M211.52,127.97c-0.32,0.3-0.53,0.34-0.77,0.76c0.14,0.09,0.32-0.2,0.52-0.27
						c-0.27-0.1,0.22-0.13,0.23-0.45c0.09-0.02,0.14,0,0.19,0.02c0-0.07,0-0.16,0.02-0.25l-0.01,0.02l0,0l0,0
						c-0.03,0.05-0.04,0.08-0.03,0.04c0,0-0.01,0-0.01,0C211.59,127.9,211.55,127.93,211.52,127.97c0-0.12,0.06-0.1,0.12-0.12
						l0.04-0.05l0,0c-0.12,0-0.24-0.01-0.37,0C211.32,127.88,211.39,127.92,211.52,127.97z"/>
					<path class="st6" d="M211.04,130.46c0.02-0.03,0.04-0.05,0.06-0.08C211.06,130.41,211.03,130.43,211.04,130.46z"/>
					<path class="st6" d="M211.15,130.21c0.06-0.03,0.19-0.14,0.2-0.07c-0.05,0.13-0.14,0.15-0.24,0.25
						c0.11-0.06,0.31-0.13,0.37-0.36l-0.05,0.03c0.03-0.18,0.3-0.66,0.35-0.69C211.53,129.67,211.36,129.89,211.15,130.21z"/>
					<path class="st6" d="M211.27,129.18l-0.3,0.01l-0.17,0.35l0.15-0.17C210.98,129.52,211.15,129.3,211.27,129.18z"/>
					<polygon class="st6" points="211.2,127.35 211.51,127.02 211,127.43 					"/>
					<polygon class="st6" points="210.93,127.2 211.18,126.9 210.97,127.04 					"/>
					<path class="st6" d="M194.95,126.25l-0.07,0.1C194.91,126.32,194.93,126.29,194.95,126.25z"/>
					<path class="st6" d="M195.36,126.32l0.03-0.19C195.36,126.24,195.34,126.31,195.36,126.32z"/>
					<path class="st6" d="M204.51,123.6c0.05-0.38,0.15-0.95,0-0.53l-0.13,0.41C204.48,123.44,204.51,123.5,204.51,123.6z"/>
					<path class="st6" d="M199.22,124.68c0,0.04,0,0.09,0,0.13c0.05-0.14,0.11-0.27,0.15-0.39
						C199.32,124.5,199.27,124.59,199.22,124.68z"/>
					<path class="st6" d="M198.76,126.41l-0.05-0.3C198.72,126.22,198.73,126.31,198.76,126.41z"/>
					<path class="st6" d="M192.64,126.51l-0.09,0.44C192.65,126.95,192.62,126.72,192.64,126.51z"/>
					<path class="st6" d="M208.29,125.58c0.01-0.19-0.01-0.29-0.05-0.33C208.2,125.52,208.08,125.88,208.29,125.58z"/>
					<path class="st6" d="M195.67,121.7c-0.05,0.07-0.08,0.16-0.09,0.26C195.63,121.89,195.66,121.81,195.67,121.7z"/>
					<path class="st6" d="M208.02,125.13c0,0.05-0.01,0.07-0.01,0.11c0.09-0.03,0.17-0.05,0.23,0.01
						C208.27,125.05,208.25,124.91,208.02,125.13z"/>
					<path class="st6" d="M184.32,126.38c-0.01-0.02-0.01-0.03-0.02-0.05C184.3,126.39,184.3,126.39,184.32,126.38z"/>
					<path class="st6" d="M181.18,122.4c0.02-0.03,0.06-0.04,0.1-0.05C181.26,122.32,181.23,122.33,181.18,122.4z"/>
					<path class="st6" d="M210.06,126.31C210.13,126.33,210.1,126.28,210.06,126.31L210.06,126.31z"/>
					<path class="st6" d="M209.31,127.88c-0.04,0.03-0.08,0.08-0.14,0.16C209.23,127.96,209.28,127.91,209.31,127.88z"/>
					<path class="st6" d="M206.19,127.19L206.19,127.19C206.16,127.27,206.16,127.25,206.19,127.19z"/>
					<path class="st6" d="M210.03,126.53c0.01-0.06,0.01-0.11,0.01-0.15C210.02,126.41,210.02,126.46,210.03,126.53z"/>
					<path class="st6" d="M210.13,126.36c0.01,0.03,0.02,0.05,0.02,0.07C210.21,126.37,210.23,126.33,210.13,126.36z"/>
					<path class="st6" d="M209.97,126.28c0.03,0.02,0.05,0.05,0.06,0.1c0.01-0.03,0.02-0.05,0.03-0.06
						C210.04,126.31,210.01,126.3,209.97,126.28z"/>
					<path class="st6" d="M188.76,124.92c0-0.01-0.01-0.02-0.01-0.04C188.7,125.06,188.72,125.03,188.76,124.92z"/>
					<path class="st6" d="M201.55,127.31c0,0,0.01-0.01,0.01-0.02l0-0.02L201.55,127.31z"/>
					<path class="st6" d="M201.26,127.56c0.25-0.49,0.27-0.41,0.29-0.28l0.33-1.21L201.26,127.56z"/>
					<path class="st6" d="M193.94,126.27l0.1,0.4c-0.22,0.63-0.32,0.4-0.24,0.95c0.14-1.35,0.53-0.09,0.68-1.44l0.06,0.29
						c-0.02-0.02-0.04,0.06-0.06,0.05c0.1,0.67,0.23-0.96,0.44-0.74c0.07,0.11,0.1,0.31,0.03,0.47l0.21-0.31
						c0.05,0.03,0.01,0.26-0.04,0.23l0.28-0.08l-0.01,0.04c0.06-0.21,0.19-0.52,0.26-0.66c0.04,0.2-0.05,0.14-0.06,0.31l0.19-0.3
						c0.01,0.36-0.16,0.68-0.25,0.61c-0.04,1.36,0.17-0.32,0.35,0.51l-0.16,0.15c-0.02,0.78,0.12,0.52,0.2,1.01
						c0-0.25-0.13-1.24,0.07-1.55c0.03,0.11,0.08,0.17,0.21-0.09c-0.07,0.48,0.03,0.37,0.14,0.36l-0.11,0.63
						c0.14-0.17,0.18-0.49,0.29-0.76c0.12,0.08,0.06,0.57,0.02,0.99c0.18,0.13-0.01-0.81,0.25-0.89c0.13,0.27,0.28,0.04,0.55-0.3
						c0.08,0.24-0.09,0.38-0.08,0.57l0.2-0.48c0.02,0.02-0.01,0.17-0.03,0.25c0.12-0.18,0.12-0.63,0.3-0.77
						c0.17-0.68,0.09,1.06,0.41,0.31c0.01,0.19-0.1,0.38-0.14,0.62c0.34-0.46,0.27-0.33,0.62-0.98l0.07,0.45
						c-0.02-0.5,0.26-1.02,0.51-1.44c0.01-0.24,0.01-0.44,0.01-0.54l0.31-0.28c0,0.11-0.07,0.32-0.17,0.57
						c0.03-0.05,0.05-0.1,0.08-0.14c0.03,0.25-0.1,0.6-0.24,0.93c0-0.13,0.01-0.27,0.01-0.4c-0.14,0.37-0.29,0.77-0.36,1.14
						c0.03-0.07,0.07-0.12,0.11-0.15c-0.04,0.1-0.07,0.19-0.08,0.25c-0.01,0.07,0.05-0.07,0.12-0.22l-0.11,0.71l0.08-0.27l0.17,0.5
						c0.37-0.66,0.8-1.62,1.21-1.82c-0.22,0.48-0.24,0.82-0.4,1.42c0.08-0.66-0.32,0.2-0.44,0.03c0.07,0.09-0.02,0.37-0.07,0.47
						l0.44-0.5c-0.14,0.49-0.04,0.38-0.02,0.61c0.2-0.98,0.39-0.59,0.59-0.85c-0.08,0.33-0.21,0.65-0.33,0.53
						c-0.05,0.77,0.52-1.08,0.51-0.42c-0.04,0-0.04-0.06-0.1,0.1c0.17-0.26,0.3,0.02,0.17,0.29l-0.04,0
						c0.2,0.19,0.69,0.23,0.99-0.57c-0.04,0.1-0.35,0.96-0.41,1.12c0.43-0.86,0.87-1.72,1.33-2.58c-0.27,0.68-0.69,2.37-1.01,2.7
						c0.02,0.12,0.05,0.25,0.25,0.04c0-0.11,0.25-1.03,0.32-1.08c-0.12,0.81-0.04,0.45-0.11,1.16c0-0.17,0.44-1.22,0.52-1.16
						c-0.07,0.16-0.38,1.07-0.45,1.17l0.6-0.97c-0.13,0.17-0.34,0.89-0.4,1.21c0.05-0.21,0.18,0.09,0.27,0l0-0.28
						c0.18,0.25,0.81-1.38,1.05-1.23c-0.12,0.2-0.6,1.3-0.54,1.48c0.27-0.52,1.3-2.46,1.71-2.76l-0.09,0.32l0.33-0.27
						c-0.47,0.74-1.48,2.29-1.89,2.88c-0.01,0.28-0.12,0.37,0.02,0.4c-0.07,0.3-0.25,0.4-0.29,0.4l0.22,0.31
						c0.25-0.62,0.49-0.52,0.71-1.04l-0.61,0.5c0.24-0.63,0.94-1.67,1.13-1.46c-0.05,0.27-0.53,1.07-0.61,1.28
						c0.12-0.2,0.39-0.31,0.34-0.16l-0.24,0.29c0.01,0.28,0.57-0.72,0.44-0.08c0.03,0.06-0.23,0.85-0.05,0.5
						c0.26-0.73,1.25-2.89,1.56-3.38c0,0.06-0.03,0.81-0.14,1.18c-0.18,0.58-0.76,1.22-0.92,1.72c0.08-0.16,0.23-0.34,0.28-0.4
						c-0.02,0.17-0.27,0.5-0.13,0.48c0.33-0.6,0.2,0.17,0.31-0.49c0.2-0.12,0.06,0.19,0.2,0.22c0.16-0.41,0.81-1.27,1.03-1.38
						c-0.09,0.15-0.17,0.36-0.21,0.46c0.21,0.17,0.18,0.53,0.39,0.65c-0.06,0.15-0.06,0.39-0.25,0.61c0.09-0.09,0.23-0.27,0.31-0.25
						c-0.18,0.58-0.19,0-0.45,0.66c0.21-0.34,0.44-0.37,0.66-0.53c0.29-0.54-0.16-0.23-0.37-0.07c0.42-0.73,1.04-1.39,1.48-1.59
						c0.3-0.07-0.2,0.51-0.11,0.43c0.27,0.33,1.09-1.05,1.05-0.35c-0.18,0.53-0.59,0.89-0.78,1.23c-0.25,0.07-0.03-0.43-0.14-0.48
						l-0.02,0.3c-0.14,0.12-0.31,0.17-0.28,0c-0.17,0.47,0.5,0.45,0.5,0.99c0.15-0.12,0.33-0.22,0.42-0.42l-0.12,0.01
						c0.17-0.41,0.5-0.39,0.51-0.62c0.28-0.17,0.7-0.48,0.71-0.16l-0.34,0.52c0.1-0.15,0.12-0.37-0.04-0.25
						c0.23-0.17-0.27,0.84,0.28,0.25l0.15-0.42c0.29-0.16,0.83-0.57,0.85-0.31c0.31-0.53-0.07,0.03,0.26-0.61
						c-0.45,0.77-0.34-0.31-0.76,0.54c0.39-0.74,0.04-0.42,0.3-1.08c-0.11,0.17-0.18,0.35-0.24,0.18c-0.04,0.04-0.1,0.1-0.13,0.13
						l0-0.02l-0.01,0.02c-0.02,0.02-0.03,0.03,0,0.01c-0.02,0.09-0.06,0.19-0.12,0.29c-0.33,0.34-0.51,0.19-0.71,0.35
						c-0.02-0.13,0.16-0.17,0.25-0.37l-0.3,0.23c0.25-0.38,0.23-0.75,0.55-0.85l-0.15-0.12c0.05-0.27-0.03-0.44-0.21-0.34
						c-0.02-0.13-0.46,0.29-0.2,0.04c-0.13,0.02-0.26,0.05-0.4,0.08l0.06-0.1c-0.23-0.2-0.89,0.34-0.77-0.53
						c-0.14,0.05-0.3,0.12-0.37-0.07l0.16-0.36c-0.17,0.05-0.15-0.52-0.39-0.19c0.37-0.99-0.45-0.48-0.56-0.75l-0.23,0.45
						c-0.12-0.09-0.32-0.03-0.57,0.07l-0.18,0.41c-0.3,0.27-0.24-0.45-0.49-0.51c0.08-0.15,0.13-0.08,0.12,0.03
						c0.13-1.05-0.87,0.42-0.83-0.36c-0.12,0.12-0.15,0.06-0.15-0.06c0.01,0,0.01,0,0.02-0.02c0-0.01-0.01-0.01-0.02-0.01
						c0-0.08,0-0.18,0-0.26c-0.01,0.11-0.02,0.2-0.01,0.25c-0.05-0.01-0.15,0.01-0.26,0.09l0.14-0.46c-0.01,0-0.01,0-0.02,0.01
						c-0.01-0.19-0.14,0.19-0.23,0.54c-0.06,0.06-0.13,0.14-0.2,0.24c0.22-0.75-0.28,0.17-0.07-0.63c-0.19,0.36-0.47,0.15-0.79,0.94
						c0.03-0.11,0.03-0.16,0.07-0.15c-0.05-0.12-0.09-0.24-0.24-0.04l0.17-0.59l-0.44,0.72c0.02-0.39,0.04-0.61,0.3-1.02
						c-0.49,0.6-0.3,0.19-0.74,0.8l0.13-0.37c-0.08-0.01-0.37,0.46-0.31,0.13c0.05-0.78-0.82-0.36-1.09-1.15
						c-0.21,1.15-0.08-0.56-0.33,0.31c0.04-0.27,0.02-0.44,0.15-0.65c-0.3,0.2-0.25-0.52-0.59,0.18c0.04-0.28,0.15-0.38,0.16-0.55
						c-0.03,0.05-0.13,0.22-0.12,0.05c0.01-0.17,0.09-0.22,0.16-0.33c-0.26-0.01-0.48,0.81-0.67,1.58
						c-0.03-0.39-0.11-0.36-0.31,0.13c0.02-0.26,0.01-0.55,0.17-0.6c-0.07-0.06-0.43-0.49-0.57,0.14c0.01-0.16-0.11-0.07-0.14,0
						c-0.18-0.08-0.18-0.13-0.38-0.11l0.03,0.11c-0.22,0.74-0.18,0.14-0.35,0.2l0.02-0.08c-0.23-0.61-0.19,0.24-0.41-0.45
						l-0.07,0.48c-0.21,1.01-0.19-0.66-0.45-0.3l0.02,0.28c-0.16,0.33-0.07-1.43-0.16-1.57c-0.01-0.09,0.06-0.14,0.1-0.2
						c-0.19-0.64-0.13,0.62-0.37,0.73c0.01-0.34,0.18-0.84,0.05-0.93c-0.04-0.28-0.57,1.03-0.67,0.36c0.01,0.27,0.01,0.53-0.11,0.71
						c-0.16,0.07-0.28-1.03-0.52-0.23c-0.01-0.07-0.01-0.14,0-0.21c-0.14,0.2-0.41,0.31-0.53,0.74c0.07-1.66-0.78,0.72-0.63-0.79
						l-0.36,0.05l0.02-0.15c-0.22-0.12-0.33,0.24-0.43,0.6c-0.04-0.11,0-0.25,0.02-0.33c-0.3-0.33-0.35-0.27-0.67,0.47l0-0.5
						c-0.09,0.28-0.43-0.8-0.78-0.24c0.01-0.06,0.02-0.15,0.05-0.22c-0.38,0.56-0.83-1.4-1.01,0.39l-0.25,0.44
						c0.3,0.15-0.06,0.78,0.06,1.09c-0.12,0.1-0.29-0.55-0.15-0.64l0.02,0.09c0.07-0.94-0.37-0.34-0.35-0.98
						c-0.6,0.04-1.2-0.48-1.77-0.51l0.08,0.73l-0.2-0.04c-0.06-0.17-0.08-0.57,0.06-0.54c-0.08-0.41-0.23,0.35-0.23,0.51
						c-0.28-0.29,0.09-0.85,0-0.87l-0.11,0.06l0.03,0.08c-0.09,0.3-0.08,0.62-0.25,0.59c-0.11-0.14-0.07-0.45-0.11-0.48
						c0-0.05-0.02-0.08-0.07-0.02l-0.25-0.05l0.12,0.57c-0.1,0.29-0.23-0.02-0.09,0.63c-0.21-1-0.94-0.32-1.06-0.62
						c-0.13,0.43-0.28,0.43-0.47,0.39c0.05,0.12,0.13,0.76-0.04,0.69c-0.04-1.34-0.33-0.56-0.54-1.51c0.17,0.63-0.45,0.19-0.19,1.08
						c-0.14-0.1-0.05-0.5-0.18-0.81c-0.28,0.54-0.74-0.27-1.13-0.06c0.01,0.18,0.11,0.44,0.05,0.71l-0.31-0.85
						c-0.07,0.09,0.04,1.02-0.17,0.43c0.04,0.14,0.09,0.36,0.05,0.42c-0.89-0.76-1.47,0.89-2.52-0.57c0.17,0.32,0.1,0.36,0.02,0.39
						c0.07,0.07,0.07,0.43,0.12,0.66l-0.45-0.6c0.06,0.66-0.36,0.11-0.27,0.74l0.09-0.13c0,0.76,0.5,1.6,0.65,2.54
						c0-0.86,0.59,1.17,0.62-0.06c0.08,0.18,0,0.31,0.07,0.53c-0.01-0.41,0.05-0.51,0.22-0.35l0,0.1c0.36-0.16,0.59,0.22,1.04,0.43
						l-0.09-0.47c0.1,0.05,0.14,0.2,0.2,0.31c0.01-0.73-0.26-0.01-0.27-0.8c0.25,0.94,0.66-0.07,0.87,1.01
						c0.14-0.01-0.11-0.54,0.04-0.55l0.07,0.29l-0.01-0.38c0.1,0.05,0.19,0.42,0.22,0.66c-0.03-0.03-0.06,0.08-0.08,0.1
						c0.16,0.33,0.32-0.16,0.38-0.05l-0.15-0.17c0.36-0.31,0.86,0.02,1.18-0.6l-0.05-0.22c0.26-0.43,0.25,0.23,0.55,0.01l-0.01,0.05
						c0.05-0.23,0.12-0.35,0.21-0.33c-0.06,0.27,0.18,0.5,0.1,0.79c0.28-0.46,0.13-0.36,0.29-1.2l0.07,0.37
						c0.05-0.34,0.05-0.52,0.2-0.62c-0.11,0.33,0.13,0.56,0.01,0.99c0.37,0.79,0.45-0.84,0.66,0.34c0.11-1.03-0.31-0.56-0.24-0.78
						c-0.09-0.33,0.09-0.77,0.2-0.67c0.11,0.02,0.24,1.3,0.5,1.27c-0.03,0-0.03,0.07-0.05,0.07c0.11,0.26,0.18-0.36,0.32,0.06
						c0.05-0.62,0.16,0.03,0.16-0.76l-0.24,0.19c0.13-0.21,0.24-1.14,0.48-0.69c-0.01,0.16-0.08,0.37-0.12,0.49
						c0.07,0.23,0.13-0.16,0.2,0.08c0,0.79-0.29,0.18-0.43,0.78c0.08,0.33,0.26-0.58,0.21,0.28c0.08-1.09,0.26,0.13,0.43-0.7l0,0.47
						c0.03-0.08,0.08-0.3,0.13-0.29l-0.09,0.62c0.14-0.53,0.28,0.45,0.41,0.17c-0.29,0.02-0.07-0.57-0.19-0.92
						c0.36-0.64,0.21,1.24,0.61,1.01c-0.05,0.07-0.2-0.29-0.12-0.51c0.08,0.1,0.18,0.28,0.22,0.53c0.26-0.1-0.04-0.49,0.08-0.78
						c0.09,0.58,0.13-0.23,0.25-0.42l0,0.48c0.3,0.31,0.09-1.01,0.36-0.63l-0.13,0.67l0.14-0.17l-0.04,0.55
						c0.16-0.4,0.21-0.3,0.35-0.14c-0.03-0.34,0.04-0.87,0.18-0.89c0.08,0.29-0.07,0.46,0.13,0.39c-0.05,0.3-0.11,0.68-0.18,0.23
						c-0.02,0.16-0.04,0.3-0.06,0.46c0.09,0.33,0.24,0.08,0.31,0.08c-0.03-0.02-0.06-0.05-0.07-0.11l0.3-0.66
						c0.04,0.18,0,0.33-0.04,0.47c0.06-0.05,0.1-0.27,0.19-0.31c-0.04,0.39-0.05,0.79-0.17,0.97l0.28-0.42
						c0.01,0.17,0.11,0.48,0.07,0.62c0.13,0.24,0.39-0.74,0.56-0.43c0.01-0.08,0.04-0.15,0.08-0.2c0.17,0.1,0.3,0.59,0.54,0.07
						l0.06,0.71c0.18-0.15-0.09-0.9,0.2-1.14c0.21-0.21,0.02,0.6,0.08,0.8c0.12-0.35,0.36-1.05,0.49-0.46
						C194.04,126.33,194,126.22,193.94,126.27z M196.01,126.2c-0.05,0.09-0.18,0.39-0.16,0.11
						C195.96,125.77,195.96,126.03,196.01,126.2z M199.31,125.65c-0.07,0.15-0.09,0.06-0.1-0.13
						C199.26,125.49,199.3,125.52,199.31,125.65z M209.26,126.24l-0.02,0.02C209.26,126.04,209.25,126.13,209.26,126.24z
						 M209.32,126.54c0.06-0.04,0.09-0.1,0.12-0.16c-0.08,0.09-0.13,0.07-0.15,0.01C209.23,126.5,209.2,126.59,209.32,126.54z
						 M188.05,121.69l0.04,0.12C188.01,121.96,188.03,121.83,188.05,121.69z"/>
					<path class="st6" d="M198.81,126.21c0.01-0.08,0.02-0.17,0.04-0.26C198.82,126.03,198.8,126.12,198.81,126.21z"/>
					<polygon class="st6" points="192.66,126.43 192.65,126.42 192.64,126.51 					"/>
					<path class="st6" d="M204.65,128.54c0-0.08,0.02-0.17,0.05-0.26C204.64,128.39,204.61,128.49,204.65,128.54z"/>
					<path class="st6" d="M210.73,126.53l-0.19,0.01c0.07,0.02,0.02,0.12,0.01,0.21C210.62,126.66,210.69,126.51,210.73,126.53z"/>
					<path class="st6" d="M209.79,129.59c0.05-0.03,0.03,0.02,0.09-0.02l0.14-0.17C209.95,129.36,209.79,129.47,209.79,129.59z"/>
					<path class="st6" d="M209.87,127.89c-0.24,0.33-0.09,0.27,0.03,0.27c-0.01,0-0.01,0-0.01-0.01
						C210.25,127.72,210.06,127.8,209.87,127.89z"/>
					<path class="st6" d="M209.92,128.16c0.03,0,0.06,0.01,0.07,0.04C210.15,128.03,210,128.15,209.92,128.16z"/>
					<path class="st6" d="M209.69,126.47c-0.02,0.11,0.32-0.41,0.25-0.26C210.28,125.81,209.33,126.55,209.69,126.47z"/>
					<polygon class="st6" points="209.12,129 209.4,128.58 209.11,128.87 					"/>
					<path class="st6" d="M208.78,128.29l0.04,0.19c0.05-0.07,0.09-0.1,0.13-0.12C208.88,128.3,208.86,128.17,208.78,128.29z"/>
					<path class="st6" d="M208.95,128.36c0.03,0.03,0.07,0.05,0.14,0C209.07,128.35,209.01,128.34,208.95,128.36z"/>
					<polygon class="st6" points="208.88,129 208.91,128.89 208.85,128.8 					"/>
					<path class="st6" d="M207.56,127.37l-0.21,0.04c-0.1,0.14-0.12,0.25-0.04,0.22C207.41,127.55,207.49,127.52,207.56,127.37z"/>
					<path class="st6" d="M207.22,128.77c0.02-0.11,0.08-0.21,0.15-0.36l-0.34,0.52L207.22,128.77z"/>
					<path class="st6" d="M206.78,128.67c-0.1,0.14-0.44,0.32-0.26,0.38C206.62,128.91,206.82,128.86,206.78,128.67z"/>
					<polygon class="st6" points="205.2,126.91 205.24,126.92 205.68,126 					"/>
					<path class="st6" d="M202.48,128.38c0.06,0.28,0.27-0.57,0.29-0.24c0.13-0.21-0.02-0.27,0.09-0.45
						C202.68,127.89,202.68,127.74,202.48,128.38z"/>
					<path class="st6" d="M202.87,127.69c0.03-0.03,0.06-0.07,0.11-0.13C202.92,127.62,202.89,127.66,202.87,127.69z"/>
					<polygon class="st6" points="180.64,121.94 180.47,121.76 180.62,122.08 					"/>
					<path class="st6" d="M180.54,122.73l-0.16-0.63l0.03,0.59C180.44,122.66,180.49,122.59,180.54,122.73z"/>
					<path class="st6" d="M196.11,127.54l0.03-0.15c0.01-0.17-0.01-0.19-0.06-0.22L196.11,127.54z"/>
					<polygon class="st6" points="194.74,126.87 194.76,126.88 194.78,126.29 					"/>
					<path class="st6" d="M193.46,127.49c0.05,0.03,0.12-0.1,0.16-0.07C193.51,127.52,193.5,126.76,193.46,127.49z"/>
				</g>
			</g>
		</g>
	</g>
</g>
<g id="XMLID_12_">
	<path id="XMLID_28_" class="st7" d="M175.12,127.96c0,0,0.19-0.22,0.55-0.56c0.37-0.32,0.88-0.83,1.55-1.34
		c0.66-0.53,1.47-1.1,2.37-1.65c0.45-0.27,0.91-0.57,1.41-0.82c0.49-0.26,0.99-0.52,1.5-0.77c1.03-0.47,2.09-0.9,3.14-1.19
		c0.51-0.16,1.03-0.26,1.53-0.34c0.49-0.08,0.97-0.14,1.41-0.16c0.44-0.04,0.85,0,1.21,0.05c0.36,0.05,0.67,0.13,0.91,0.21
		c0.49,0.16,0.71,0.39,0.72,0.37l-0.04,0.09c-0.01,0.02-0.25-0.13-0.73-0.19c-0.47-0.08-1.17-0.09-1.99,0.05
		c-1.64,0.26-3.74,1.05-5.74,2c-4.04,1.86-7.75,4.32-7.75,4.32L175.12,127.96z"/>
</g>
<g id="XMLID_14_">
	<path id="XMLID_25_" class="st7" d="M189.66,126.36c0,0,0.56-0.64,1.54-1.37c0.49-0.37,1.08-0.77,1.74-1.14
		c0.65-0.39,1.39-0.73,2.14-1.06c0.76-0.29,1.53-0.57,2.29-0.74c0.75-0.18,1.48-0.29,2.12-0.29c0.32-0.01,0.61,0,0.87,0.05
		c0.26,0.04,0.48,0.06,0.67,0.14c0.36,0.13,0.55,0.22,0.55,0.22l-0.02,0.1c0,0-0.2-0.02-0.54-0.05c-0.17-0.03-0.38,0.02-0.62,0.02
		c-0.24,0-0.51,0.06-0.8,0.12c-0.58,0.1-1.25,0.3-1.96,0.53c-0.71,0.23-1.45,0.52-2.18,0.83c-2.95,1.19-5.74,2.73-5.74,2.73
		L189.66,126.36z"/>
</g>
<g id="XMLID_15_">
	<path id="XMLID_22_" class="st8" d="M201.31,128.48c0,0,0.49-0.53,1.4-1.1c0.46-0.28,1.01-0.58,1.65-0.82
		c0.63-0.26,1.34-0.42,2.06-0.55c0.37-0.02,0.73-0.07,1.1-0.07c0.36,0.01,0.72,0.01,1.06,0.09c0.34,0.06,0.67,0.11,0.97,0.23
		c0.3,0.11,0.59,0.19,0.82,0.34c0.24,0.13,0.46,0.26,0.64,0.37c0.18,0.14,0.32,0.27,0.44,0.37c0.24,0.21,0.36,0.33,0.36,0.33
		s-0.17-0.06-0.46-0.16c-0.14-0.05-0.31-0.12-0.51-0.2c-0.21-0.05-0.43-0.11-0.67-0.18c-0.24-0.08-0.52-0.09-0.79-0.15
		c-0.28-0.06-0.58-0.05-0.89-0.08c-0.3-0.04-0.63,0.01-0.95,0c-0.32,0-0.65,0.06-0.98,0.09c-0.33,0.06-0.66,0.09-0.98,0.17
		c-0.32,0.08-0.64,0.13-0.95,0.22c-0.62,0.15-1.18,0.35-1.67,0.5C201.97,128.24,201.31,128.48,201.31,128.48z"/>
</g>
<path id="XMLID_10_" class="st5" d="M81.08,142.5c0,0,18-26.62,49.25-13.69c0,0-2.5-11.31-27.75-9.81
	C94.63,119.47,81.08,124.28,81.08,142.5z"/>
<g id="XMLID_18_">
	<g>
		<g>
			<g>
				<path class="st6" d="M123.79,125.96c0.01,0.01,0.03,0.04,0.04,0.04C123.75,125.9,123.79,125.96,123.79,125.96z"/>
				<path class="st6" d="M122.87,125.26l0.03-0.02c-0.06-0.01-0.11-0.01-0.17-0.01L122.87,125.26z"/>
				<path class="st6" d="M122,124.62c-0.02,0.33,0.34,0.18,0.46,0.39l0.01,0.07l0.13-0.11C122.41,124.82,122.1,124.79,122,124.62z"
					/>
				<path class="st6" d="M121.79,123.52c-0.02,0.17-0.14,0.01,0.09,0.15c0-0.02,0-0.04-0.01-0.05
					C121.85,123.6,121.83,123.58,121.79,123.52z"/>
				<path class="st6" d="M121.87,123.62C121.96,123.71,121.86,123.45,121.87,123.62L121.87,123.62z"/>
				<path class="st6" d="M121.44,123.28l0.16-0.02c0.01-0.11-0.09-0.25-0.03-0.27C121.43,122.94,121.42,123.07,121.44,123.28z"/>
				<path class="st6" d="M121.22,123.48l0.08-0.01C121.31,123.42,121.3,123.39,121.22,123.48z"/>
				<path class="st6" d="M121.48,123.47l-0.17,0c-0.01,0.08-0.05,0.21,0.08,0.01C121.33,123.59,121.4,123.5,121.48,123.47z"/>
				<path class="st6" d="M121.53,123.59c0.04,0.14,0.11,0.26-0.06,0.29C121.73,124.02,121.78,123.76,121.53,123.59z"/>
				<path class="st6" d="M121.84,124.88l0.07,0.13l0.12-0.05C121.97,124.99,121.87,124.79,121.84,124.88z"/>
				<path class="st6" d="M120.77,122.34c-0.04,0.1-0.05,0.32-0.09,0.46l0.13-0.04C120.79,122.65,120.72,122.51,120.77,122.34z"/>
				<path class="st6" d="M120.68,122.8l-0.2,0.07C120.6,122.99,120.65,122.93,120.68,122.8z"/>
				<path class="st6" d="M121.04,123.93c0.11-0.06,0.23-0.11,0.33-0.15c-0.12,0.03-0.25,0.07-0.38,0.12L121.04,123.93z"/>
				<polygon class="st6" points="120.26,121.83 120.42,121.63 120.15,121.92 				"/>
				<path class="st6" d="M119.9,121.55c0.13-0.19,0.05-0.5,0.16-0.6c-0.11-0.06-0.25,0.08-0.38,0.21
					C119.78,121.13,119.86,121.24,119.9,121.55z"/>
				<path class="st6" d="M119.46,121.36c0.06-0.03,0.13-0.11,0.21-0.19C119.61,121.19,119.55,121.24,119.46,121.36z"/>
				<path class="st6" d="M120.27,122.63c0.01-0.08,0.05-0.28,0-0.42l-0.05,0.38L120.27,122.63z"/>
				<path class="st6" d="M120.21,122.6l0-0.01c-0.06-0.06-0.1-0.1-0.11-0.11C120.12,122.49,120.15,122.53,120.21,122.6z"/>
				<path class="st6" d="M120.28,122.65l-0.01-0.01C120.26,122.67,120.26,122.68,120.28,122.65z"/>
				<path class="st6" d="M120.75,123.45c-0.13,0.09-0.37,0.17-0.28,0.51C120.6,123.8,120.55,123.6,120.75,123.45z"/>
				<path class="st6" d="M120.22,123.1l0.13,0.17c0.02-0.08,0.03-0.22,0.1-0.28L120.22,123.1z"/>
				<polygon class="st6" points="120.11,123.15 120.22,123.1 120.17,123.03 				"/>
				<path class="st6" d="M119.61,121.93c-0.11,0.11-0.19,0.07-0.28,0.04c0.06,0.14,0.14,0.25,0.23,0.31
					C119.6,122.18,119.7,122,119.61,121.93z"/>
				<path class="st6" d="M119.89,122.29l-0.02,0.01C119.87,122.34,119.87,122.35,119.89,122.29z"/>
				<path class="st6" d="M118.45,121.63c0,0.02,0,0.05-0.01,0.08l0.02-0.07L118.45,121.63z"/>
				<path class="st6" d="M119.55,122.37c0.04,0.12,0.11,0.06,0.18-0.03c-0.06,0-0.12-0.01-0.17-0.05
					C119.53,122.34,119.52,122.37,119.55,122.37z"/>
				<path class="st6" d="M119.18,121.37c0.01,0.11,0.03,0.21,0.05,0.31C119.23,121.53,119.22,121.27,119.18,121.37z"/>
				<path class="st6" d="M119.88,122.19c0,0,0.01-0.01,0.01-0.01C119.9,122.08,119.89,122.12,119.88,122.19z"/>
				<path class="st6" d="M119.88,122.19c-0.05,0.02-0.1,0.09-0.15,0.15c0.05,0,0.1-0.01,0.14-0.04
					C119.87,122.27,119.88,122.23,119.88,122.19z"/>
				<path class="st6" d="M117.47,124.23c0.11-0.38,0.4-0.69,0.44-0.23c0.24-0.25,0.49-1.56,0.54-2.29
					c-0.05,0.17-0.09,0.33-0.33,0.52c0,0.22,0.24,0.56,0,0.89c-0.27,0.15-0.14-0.18-0.2-0.4c-0.04,0.5-0.46,0.62-0.6,1.34l0.25-0.2
					C117.56,123.96,117.44,124.11,117.47,124.23z"/>
				<path class="st6" d="M118.77,121.8l0.08-0.03c-0.06-0.09-0.07-0.26-0.1-0.58c-0.18,0.18-0.24,0.32-0.28,0.44
					c0.11,0.03,0.23,0.06,0.34,0.11L118.77,121.8z"/>
				<path class="st6" d="M119.15,121.92c-0.17,0.37-0.38,0.48-0.41,0.98c0.2,0.06,0.23-0.28,0.4-0.39c-0.33-0.08,0.15-0.17,0-0.54
					c0.08-0.03,0.14-0.01,0.19,0c-0.04-0.09-0.07-0.18-0.1-0.29l0,0.03l0,0l0,0.01c0,0.06-0.01,0.09-0.01,0.05l-0.01,0
					C119.19,121.83,119.17,121.88,119.15,121.92c-0.06-0.15,0.02-0.12,0.06-0.15l0.02-0.06l0-0.01c-0.12,0-0.24,0.02-0.38,0.06
					C118.91,121.85,118.99,121.88,119.15,121.92z"/>
				<path class="st6" d="M120.1,124.52c0-0.03,0.01-0.05,0.01-0.07C120.09,124.47,120.07,124.49,120.1,124.52z"/>
				<path class="st6" d="M120.04,124.29c0.04-0.03,0.09-0.15,0.16-0.09c0.03,0.12-0.05,0.14-0.08,0.24
					c0.07-0.07,0.22-0.15,0.13-0.35l-0.03,0.03c-0.09-0.15-0.12-0.63-0.08-0.67C120.08,123.76,120.04,123.98,120.04,124.29z"/>
				<path class="st6" d="M119.54,123.3l-0.3,0.05l0.03,0.38l0.05-0.19C119.44,123.68,119.48,123.43,119.54,123.3z"/>
				<polygon class="st6" points="118.48,121.42 118.64,120.98 118.3,121.58 				"/>
				<polygon class="st6" points="118.1,121.39 118.21,121.01 118.06,121.22 				"/>
				<path class="st6" d="M98.71,126.61l-0.03,0.13C98.7,126.69,98.71,126.65,98.71,126.61z"/>
				<path class="st6" d="M99.21,126.45l-0.05-0.19C99.17,126.37,99.19,126.45,99.21,126.45z"/>
				<path class="st6" d="M108.96,120.08c-0.12-0.37-0.25-0.95-0.24-0.5l0.03,0.43C108.84,119.94,108.91,119.99,108.96,120.08z"/>
				<path class="st6" d="M103,123.09c0.02,0.04,0.04,0.08,0.06,0.12c0-0.15,0.01-0.29,0.01-0.42
					C103.05,122.88,103.03,122.98,103,123.09z"/>
				<path class="st6" d="M103.24,124.87l-0.19-0.25C103.09,124.71,103.16,124.8,103.24,124.87z"/>
				<path class="st6" d="M96.29,128.19l0.13,0.43C96.53,128.56,96.38,128.39,96.29,128.19z"/>
				<path class="st6" d="M114.32,120.72c-0.08-0.18-0.15-0.26-0.22-0.3C114.19,120.68,114.23,121.07,114.32,120.72z"/>
				<path class="st6" d="M97.31,122.22c-0.02,0.09-0.01,0.18,0.02,0.27C97.36,122.4,97.36,122.31,97.31,122.22z"/>
				<path class="st6" d="M113.8,120.38c0.01,0.05,0.03,0.07,0.04,0.11c0.09-0.06,0.18-0.11,0.27-0.07
					C114.04,120.22,113.95,120.09,113.8,120.38z"/>
				<path class="st6" d="M87.59,134.03c-0.02-0.01-0.03-0.01-0.05-0.01C87.57,134.05,87.58,134.05,87.59,134.03z"/>
				<path class="st6" d="M83.78,135.22c0-0.04,0.01-0.1,0.03-0.15C83.79,135.09,83.78,135.14,83.78,135.22z"/>
				<path class="st6" d="M116.68,120.83C116.77,120.82,116.71,120.79,116.68,120.83L116.68,120.83z"/>
				<path class="st6" d="M116.67,122.59c-0.03,0.04-0.05,0.1-0.08,0.2C116.62,122.69,116.64,122.62,116.67,122.59z"/>
				<path class="st6" d="M112.64,122.94L112.64,122.94C112.65,123.03,112.65,123.01,112.64,122.94z"/>
				<path class="st6" d="M116.76,121.05c-0.02-0.06-0.04-0.11-0.07-0.15C116.69,120.94,116.71,120.99,116.76,121.05z"/>
				<path class="st6" d="M116.79,120.85c0.02,0.02,0.04,0.04,0.06,0.05C116.87,120.83,116.87,120.79,116.79,120.85z"/>
				<path class="st6" d="M116.57,120.84c0.05,0,0.08,0.03,0.12,0.07c-0.01-0.03-0.01-0.06,0-0.07
					C116.66,120.84,116.62,120.84,116.57,120.84z"/>
				<path class="st6" d="M91.33,129.57c-0.01-0.01-0.02-0.01-0.04-0.02C91.35,129.73,91.35,129.69,91.33,129.57z"/>
				<path class="st6" d="M107.03,124.59c0-0.01,0.01-0.02,0.01-0.02l-0.01-0.01L107.03,124.59z"/>
				<path class="st6" d="M106.79,124.93c0.08-0.54,0.15-0.48,0.23-0.37l-0.13-1.25L106.79,124.93z"/>
				<path class="st6" d="M97.59,127.2l0.31,0.29c0.07,0.67-0.15,0.53,0.21,0.97c-0.52-1.25,0.52-0.39,0.04-1.65l0.21,0.23
					c-0.04,0-0.01,0.08-0.04,0.07c0.44,0.53-0.21-0.97,0.13-0.89c0.13,0.06,0.27,0.22,0.26,0.4l0.09-0.39
					c0.07,0,0.14,0.23,0.07,0.23l0.28-0.22l0.01,0.04c-0.03-0.22-0.03-0.57-0.02-0.72c0.15,0.15,0.01,0.15,0.08,0.3l0.08-0.37
					c0.19,0.31,0.14,0.68,0.01,0.68c0.6,1.22,0.04-0.37,0.65,0.27l-0.11,0.22c0.35,0.7,0.39,0.39,0.71,0.8
					c-0.11-0.23-0.74-1.04-0.65-1.42c0.09,0.08,0.17,0.11,0.2-0.19c0.14,0.46,0.21,0.32,0.33,0.25l0.17,0.62
					c0.08-0.22-0.02-0.53-0.02-0.83c0.17,0.01,0.34,0.48,0.49,0.87c0.27,0.02-0.38-0.72-0.12-0.92c0.27,0.19,0.35-0.1,0.51-0.53
					c0.2,0.18,0.07,0.39,0.17,0.55l0.01-0.53c0.04,0,0.06,0.16,0.07,0.24c0.06-0.22-0.14-0.62,0-0.84c-0.11-0.7,0.59,0.91,0.63,0.08
					c0.09,0.17,0.05,0.39,0.12,0.63c0.19-0.57,0.18-0.42,0.3-1.16l0.29,0.37c-0.24-0.44-0.15-1.04-0.04-1.53
					c-0.1-0.22-0.18-0.41-0.24-0.5l0.24-0.39c0.05,0.1,0.06,0.32,0.06,0.59c0.01-0.06,0.02-0.11,0.03-0.16
					c0.15,0.21,0.15,0.59,0.13,0.95c-0.05-0.12-0.11-0.25-0.17-0.37c-0.01,0.4,0,0.83,0.08,1.2c0.01-0.08,0.03-0.14,0.06-0.19
					c0,0.11,0,0.2,0.02,0.26c0.02,0.06,0.03-0.08,0.04-0.25l0.18,0.69l-0.03-0.28l0.43,0.38c0.14-0.76,0.24-1.82,0.65-2.17
					c-0.05,0.53,0.08,0.85,0.15,1.47c-0.2-0.64-0.29,0.31-0.52,0.2c0.12,0.06,0.14,0.35,0.12,0.46l0.31-0.63
					c0.05,0.5,0.13,0.37,0.25,0.56c-0.19-0.99,0.21-0.7,0.34-1.02c0.04,0.33,0.04,0.68-0.16,0.62c0.29,0.73,0.16-1.2,0.43-0.59
					c-0.05,0.01-0.08-0.03-0.08,0.14c0.08-0.31,0.38-0.11,0.34,0.19l-0.05,0.01c0.32,0.09,0.95-0.04,0.96-0.9
					c0.01,0.11,0.01,1.03,0,1.2c0.14-0.96,0.29-1.92,0.46-2.89c-0.03,0.73,0.22,2.46-0.03,2.89c0.08,0.1,0.17,0.22,0.32-0.05
					c-0.05-0.1-0.16-1.05-0.09-1.12c0.22,0.81,0.15,0.43,0.4,1.11c-0.08-0.16-0.01-1.3,0.12-1.26c-0.02,0.17,0.02,1.13-0.02,1.25
					l0.3-1.12c-0.08,0.2-0.01,0.95,0.06,1.27c-0.03-0.22,0.26,0.02,0.34-0.09l-0.12-0.26c0.34,0.18,0.36-1.58,0.72-1.51
					c-0.05,0.23-0.14,1.43,0.02,1.57c0.09-0.57,0.46-2.77,0.81-3.19l0.05,0.33l0.27-0.35c-0.22,0.85-0.73,2.64-0.96,3.35
					c0.12,0.26,0.02,0.39,0.21,0.36c0.05,0.31-0.12,0.47-0.18,0.48c0.14,0.07,0.28,0.14,0.42,0.22c0.02-0.67,0.37-0.65,0.39-1.21
					l-0.52,0.66c0.01-0.67,0.38-1.88,0.7-1.74c0.06,0.27-0.14,1.19-0.15,1.41c0.05-0.23,0.33-0.42,0.34-0.25l-0.16,0.35
					c0.15,0.27,0.35-0.87,0.51-0.21c0.07,0.05,0.14,0.88,0.18,0.48c-0.04-0.77,0.14-3.14,0.28-3.71c0.03,0.05,0.35,0.76,0.39,1.15
					c0.06,0.61-0.34,1.41-0.28,1.93c0.02-0.18,0.11-0.4,0.15-0.47c0.06,0.16-0.09,0.56,0.08,0.5c0.1-0.67,0.33,0.11,0.14-0.56
					c0.19-0.17,0.16,0.16,0.35,0.16c-0.01-0.45,0.36-1.46,0.56-1.63c-0.03,0.17-0.02,0.4-0.02,0.5c0.34,0.11,0.48,0.44,0.8,0.49
					c0,0.17,0.13,0.39,0.01,0.67c0.06-0.11,0.14-0.33,0.24-0.34c0.09,0.61-0.23,0.06-0.2,0.78c0.08-0.39,0.34-0.51,0.52-0.72
					c0.06-0.62-0.3-0.17-0.48,0.05c0.13-0.83,0.53-1.68,0.94-1.99c0.31-0.15,0.02,0.56,0.09,0.45c0.48,0.25,0.72-1.36,1.03-0.67
					c0.06,0.56-0.21,1.05-0.25,1.44c-0.26,0.16-0.27-0.4-0.42-0.41l0.13,0.29c-0.1,0.16-0.28,0.26-0.33,0.1
					c0.05,0.5,0.83,0.26,1.12,0.78c0.11-0.16,0.27-0.32,0.26-0.54l-0.14,0.05c-0.02-0.45,0.37-0.54,0.25-0.77
					c0.23-0.27,0.54-0.69,0.71-0.39l-0.1,0.61c0.04-0.18-0.07-0.4-0.18-0.23c0.16-0.24,0.16,0.9,0.46,0.15l-0.06-0.46
					c0.24-0.26,0.61-0.83,0.78-0.59c0.05-0.61-0.07,0.05-0.04-0.67c-0.09,0.89-0.54-0.18-0.55,0.77c0.04-0.84-0.18-0.41-0.23-1.15
					c-0.04,0.2-0.01,0.39-0.17,0.26c-0.02,0.06-0.06,0.13-0.08,0.17l-0.01-0.02l0,0.03c-0.01,0.03-0.02,0.03,0,0.01
					c0.02,0.1,0.03,0.21,0.02,0.32c-0.2,0.43-0.48,0.36-0.62,0.58c-0.09-0.12,0.09-0.22,0.08-0.44l-0.22,0.32
					c0.08-0.44-0.13-0.79,0.18-0.99l-0.23-0.07c-0.08-0.27-0.25-0.41-0.4-0.25c-0.09-0.12-0.37,0.43-0.21,0.11l-0.41,0.2l0.02-0.11
					c-0.35-0.13-0.85,0.59-1.14-0.26c-0.14,0.09-0.28,0.21-0.47,0.06l0.02-0.39c-0.17,0.11-0.42-0.45-0.54-0.06
					c-0.04-1.06-0.74-0.35-1-0.54l-0.06,0.5c-0.19-0.04-0.39,0.08-0.64,0.27l-0.02,0.45c-0.23,0.35-0.49-0.36-0.82-0.34
					c0.03-0.17,0.11-0.12,0.16-0.01c-0.33-1.04-0.85,0.67-1.16-0.06c-0.09,0.16-0.15,0.1-0.21-0.01c0.01,0,0.02-0.01,0.02-0.02
					c-0.01-0.01-0.02-0.01-0.04-0.01c-0.04-0.08-0.07-0.17-0.12-0.24c0.03,0.11,0.07,0.2,0.1,0.24c-0.07,0.01-0.17,0.06-0.27,0.17
					l-0.03-0.48c-0.01,0.01-0.01,0.01-0.02,0.01c-0.1-0.18-0.08,0.23-0.04,0.59c-0.05,0.08-0.1,0.17-0.14,0.29
					c-0.07-0.78-0.26,0.26-0.36-0.57c-0.07,0.4-0.5,0.3-0.54,1.15c0-0.11-0.03-0.16,0.02-0.17c-0.11-0.1-0.22-0.19-0.31,0.05
					l-0.06-0.61l-0.21,0.83c-0.15-0.37-0.23-0.58-0.1-1.06c-0.32,0.74-0.28,0.29-0.54,1.02l-0.01-0.4
					c-0.11,0.02-0.24,0.56-0.32,0.23c-0.29-0.76-1.17-0.02-1.85-0.64c0.26,1.14-0.35-0.49-0.26,0.41c-0.07-0.27-0.18-0.41-0.11-0.66
					c-0.28,0.3-0.54-0.38-0.64,0.41c-0.08-0.27,0.01-0.41-0.05-0.57c-0.02,0.06-0.06,0.25-0.12,0.1c-0.06-0.16,0.01-0.24,0.04-0.36
					c-0.32,0.1-0.22,0.95-0.11,1.74c-0.22-0.34-0.29-0.28-0.31,0.26c-0.1-0.25-0.24-0.5-0.06-0.63c-0.11-0.02-0.75-0.26-0.63,0.37
					c-0.07-0.15-0.16-0.02-0.18,0.06c-0.25,0.01-0.28-0.03-0.51,0.08l0.09,0.09c0.08,0.77-0.16,0.21-0.33,0.35l-0.01-0.08
					c-0.57-0.43-0.12,0.3-0.71-0.21l0.14,0.46c0.22,1.01-0.53-0.51-0.68-0.04l0.16,0.24c-0.03,0.38-0.76-1.23-0.94-1.31
					c-0.06-0.08,0.01-0.15,0.03-0.23c-0.54-0.47,0.13,0.62-0.1,0.84c-0.15-0.31-0.19-0.84-0.39-0.85c-0.18-0.23-0.2,1.21-0.65,0.67
					c0.14,0.23,0.28,0.46,0.22,0.68c-0.15,0.16-0.84-0.74-0.73,0.1c-0.05-0.06-0.08-0.12-0.11-0.18c-0.07,0.25-0.34,0.51-0.26,0.95
					c-0.76-1.5-0.55,1.1-1.14-0.31l-0.4,0.27l-0.05-0.15c-0.32,0.03-0.26,0.41-0.2,0.78c-0.11-0.07-0.12-0.22-0.15-0.29
					c-0.53-0.09-0.54,0-0.52,0.84l-0.26-0.42c0.05,0.3-0.93-0.41-1.03,0.32c-0.02-0.05-0.06-0.14-0.07-0.22
					c-0.12,0.74-1.72-0.59-0.94,1.04l-0.03,0.55c0.41-0.1,0.37,0.7,0.66,0.86c-0.07,0.17-0.63-0.24-0.52-0.42l0.07,0.06
					c-0.44-0.83-0.6-0.01-0.94-0.55c-0.65,0.47-1.58,0.52-2.23,0.95l0.51,0.53l-0.23,0.13c-0.16-0.09-0.43-0.39-0.26-0.49
					c-0.33-0.26-0.04,0.47,0.06,0.6c-0.47,0-0.42-0.76-0.52-0.7l-0.09,0.14l0.08,0.04c0.09,0.31,0.28,0.57,0.08,0.68
					c-0.2-0.02-0.34-0.3-0.41-0.29c-0.03-0.04-0.06-0.05-0.08,0.04l-0.3,0.17l0.47,0.35c0.07,0.31-0.25,0.18,0.28,0.58
					c-0.82-0.62-1.17,0.53-1.47,0.39c0.14,0.45-0.01,0.58-0.23,0.71c0.13,0.04,0.6,0.49,0.4,0.57c-0.88-1.02-0.68-0.14-1.49-0.7
					c0.58,0.35-0.35,0.52,0.49,1c-0.21,0.04-0.37-0.35-0.71-0.48c0.02,0.62-0.78,0.58-0.89,1.21c0.11,0.11,0.33,0.18,0.44,0.43
					c-0.24-0.08-0.46-0.16-0.68-0.22c0.01,0.15,0.58,0.62,0.12,0.49c0.1,0.05,0.25,0.13,0.25,0.22c-0.49,0.26-0.6,0.85-0.76,1.38
					c-0.15,0.54-0.42,0.98-0.69,1.43c0.1-0.1,0.09,0,0.06,0.11c0.03-0.06,0.08,0.06,0.13,0.07c-0.09,0.11-0.16,0.23-0.22,0.37
					c0.05,0.13-0.09,0.48-0.07,0.54l0.03-0.14c-0.04,0.18,0.21-0.16,0.32-0.06c0.03-0.1,0.15-0.18,0.31-0.25
					c0.15-0.07,0.36-0.13,0.34-0.33c0.1-0.01,0.02,0.09,0.11,0.1c-0.02-0.11,0.02-0.21,0.22-0.29l0.01,0.03
					c0.38-0.35,0.69-0.39,1.34-0.6l-0.25-0.15c0.13-0.05,0.23-0.01,0.34,0.01c-0.23-0.36-0.32,0.18-0.57-0.18
					c0.59,0.26,0.69-0.55,1.39-0.1c0.17-0.09-0.36-0.23-0.19-0.33l0.22,0.12l-0.18-0.22c0.14-0.04,0.42,0.12,0.58,0.25
					c-0.05,0-0.04,0.08-0.05,0.1c0.37,0.11,0.35-0.27,0.47-0.23l-0.28-0.02c0.26-0.44,1.2-0.37,0.98-1.23l-0.19-0.13
					c-0.06-0.58,0.37-0.05,0.51-0.47l0.03,0.05c-0.1-0.22-0.1-0.37,0-0.43c0.11,0.26,0.49,0.24,0.6,0.54
					c-0.02-0.59-0.1-0.38-0.47-1.17l0.3,0.23c-0.16-0.31-0.28-0.44-0.19-0.66c0.09,0.35,0.47,0.33,0.62,0.77
					c0.85,0.33-0.07-1.03,0.85-0.26c-0.52-0.91-0.65-0.19-0.71-0.43c-0.29-0.19-0.38-0.69-0.21-0.7c0.12-0.07,1.02,0.84,1.27,0.62
					c-0.03,0.02,0.02,0.08-0.01,0.1c0.26,0.13-0.03-0.43,0.36-0.19c-0.32-0.54,0.18-0.1-0.29-0.73l-0.13,0.34
					c0.01-0.27-0.43-1.1,0.08-0.94c0.08,0.14,0.14,0.36,0.16,0.49c0.21,0.13,0.03-0.23,0.25-0.09c0.46,0.64-0.19,0.37,0.04,0.96
					c0.28,0.21-0.08-0.67,0.38,0.06c-0.56-0.94,0.33-0.1,0.01-0.89l0.27,0.39c-0.02-0.08-0.09-0.3-0.03-0.33l0.27,0.56
					c-0.17-0.53,0.55,0.17,0.52-0.16c-0.28,0.22-0.4-0.42-0.73-0.61c0-0.78,0.94,0.85,1.2,0.38c-0.02,0.09-0.37-0.09-0.41-0.33
					c0.13,0.02,0.34,0.1,0.53,0.28c0.22-0.26-0.32-0.38-0.36-0.69c0.42,0.42,0.01-0.28,0.03-0.52l0.27,0.4
					c0.49,0.05-0.46-0.9,0.03-0.78l0.24,0.64l0.06-0.24l0.26,0.48c-0.06-0.45,0.05-0.4,0.29-0.36c-0.22-0.27-0.44-0.76-0.29-0.86
					c0.25,0.19,0.18,0.43,0.35,0.25c0.11,0.29,0.25,0.64-0.07,0.31c0.07,0.14,0.11,0.29,0.18,0.42c0.28,0.22,0.3-0.09,0.37-0.13
					c-0.04,0-0.08,0-0.14-0.05l-0.04-0.75c0.14,0.13,0.17,0.28,0.21,0.42c0.03-0.08-0.03-0.3,0.03-0.39
					c0.17,0.35,0.37,0.7,0.34,0.94l0.06-0.54c0.1,0.14,0.37,0.33,0.4,0.47c0.26,0.12,0.02-0.87,0.38-0.71
					c-0.02-0.07-0.04-0.15-0.02-0.22c0.24-0.02,0.62,0.32,0.63-0.28l0.44,0.58c0.12-0.23-0.56-0.72-0.36-1.1
					c0.13-0.3,0.33,0.51,0.49,0.65c-0.04-0.37-0.13-1.12,0.3-0.69C97.73,127.19,97.63,127.12,97.59,127.2z M99.9,126
					c-0.02,0.11-0.02,0.44-0.14,0.18C99.64,125.63,99.76,125.87,99.9,126z M103.56,123.93c-0.01,0.16-0.08,0.1-0.18-0.07
					C103.42,123.81,103.48,123.82,103.56,123.93z M115.74,121.04c0,0.01-0.01,0.01-0.01,0.02
					C115.64,120.86,115.67,120.94,115.74,121.04z M115.96,121.3c0.04-0.06,0.05-0.13,0.06-0.19c-0.04,0.12-0.1,0.11-0.16,0.06
					C115.85,121.3,115.86,121.39,115.96,121.3z M88.67,127.54l0.12,0.07C88.78,127.78,88.73,127.66,88.67,127.54z"/>
				<path class="st6" d="M103.21,124.67c-0.03-0.08-0.05-0.17-0.07-0.25C103.14,124.49,103.15,124.59,103.21,124.67z"/>
				<polygon class="st6" points="96.27,128.11 96.26,128.11 96.29,128.19 				"/>
				<path class="st6" d="M111.44,124.7c-0.04-0.07-0.06-0.16-0.07-0.25C111.36,124.56,111.37,124.66,111.44,124.7z"/>
				<path class="st6" d="M117.54,120.82l-0.2,0.08c0.09,0,0.09,0.11,0.11,0.19C117.47,120.98,117.48,120.81,117.54,120.82z"/>
				<path class="st6" d="M118.18,124.08c0.04-0.05,0.05,0.01,0.09-0.05l0.06-0.22C118.22,123.8,118.1,123.96,118.18,124.08z"/>
				<path class="st6" d="M117.3,122.42c-0.09,0.4,0.05,0.29,0.18,0.25c-0.01,0-0.01,0-0.02-0.01
					C117.63,122.12,117.47,122.27,117.3,122.42z"/>
				<path class="st6" d="M117.51,122.66c0.04-0.01,0.08-0.01,0.11,0.02C117.69,122.46,117.59,122.62,117.51,122.66z"/>
				<path class="st6" d="M116.35,121.11c0.03,0.11,0.15-0.5,0.14-0.33C116.67,120.28,115.99,121.31,116.35,121.11z"/>
				<polygon class="st6" points="117.06,123.74 117.15,123.24 116.99,123.61 				"/>
				<path class="st6" d="M116.28,123.15l0.15,0.18c0.02-0.08,0.05-0.12,0.09-0.15C116.41,123.13,116.31,123.01,116.28,123.15z"/>
				<path class="st6" d="M116.51,123.18c0.05,0.02,0.11,0.03,0.16-0.04C116.64,123.13,116.57,123.13,116.51,123.18z"/>
				<polygon class="st6" points="116.79,123.82 116.76,123.7 116.65,123.63 				"/>
				<path class="st6" d="M114.36,122.67l-0.22,0.1c-0.05,0.17-0.01,0.28,0.07,0.23C114.28,122.89,114.36,122.84,114.36,122.67z"/>
				<path class="st6" d="M114.7,124.13c-0.03-0.11-0.01-0.22-0.01-0.39l-0.12,0.61L114.7,124.13z"/>
				<path class="st6" d="M114.12,124.16c-0.05,0.17-0.36,0.43-0.12,0.44C114.05,124.44,114.26,124.34,114.12,124.16z"/>
				<polygon class="st6" points="111.32,122.98 111.37,122.98 111.46,121.96 				"/>
				<path class="st6" d="M108.67,125.27c0.21,0.25,0.07-0.63,0.25-0.32c0.06-0.24-0.16-0.25-0.1-0.46
					C108.69,124.74,108.62,124.6,108.67,125.27z"/>
				<path class="st6" d="M108.82,124.49c0.02-0.04,0.05-0.09,0.07-0.15C108.86,124.4,108.84,124.45,108.82,124.49z"/>
				<path class="st6" d="M83.62,135.78l-0.02,0.16c0.01-0.03,0.02-0.07,0.03-0.1L83.62,135.78z"/>
				<path class="st6" d="M83.61,136.12l-0.02,0.03c0,0.04,0,0.07-0.01,0.1C83.59,136.21,83.6,136.14,83.61,136.12z"/>
				<path class="st6" d="M100.64,127.13l-0.04-0.15c-0.07-0.16-0.1-0.16-0.17-0.17L100.64,127.13z"/>
				<polygon class="st6" points="98.78,127.26 98.81,127.26 98.55,126.74 				"/>
				<path class="st6" d="M97.68,128.54c0.07,0,0.08-0.15,0.14-0.15C97.75,128.53,97.36,127.88,97.68,128.54z"/>
			</g>
		</g>
	</g>
</g>
<g id="XMLID_19_">
	<g>
		<g>
			<path class="st9" d="M119.71,125.15c-1.81-1.57-4.28-2.56-6.48-3.42c-2.16-0.84-4.34-1.46-6.65-1.69c-2.04-0.2-3.8,0.05-5.8,0.57
				c-0.62,0.16,0.53,1.17,0.93,1.07c2.51-0.61,4.91-0.67,7.48-0.09c1.81,0.4,3.59,0.98,5.29,1.73c1.87,0.83,3.73,1.75,5.42,2.89
				c0.18,0.12,0.37-0.13,0.38-0.28C120.31,125.65,119.9,125.31,119.71,125.15z"/>
			<path class="st9" d="M119.6,124.24c-1.63-1.68-4.34-2.64-6.45-3.46c-2.16-0.84-4.34-1.45-6.65-1.65
				c-2.16-0.19-3.75,0.12-5.79,0.7c-0.4,0.11,0.58,1.79,0.93,1.71c2.59-0.61,5.08-0.67,7.66-0.09c1.81,0.41,3.6,0.97,5.29,1.73
				c1.77,0.79,3.6,1.65,5.19,2.77C120.64,126.55,119.85,124.49,119.6,124.24z"/>
			<path class="st9" d="M120.17,125.12c-1.21-0.59-2.32-1.38-3.52-2.01c-2.26-1.18-4.64-2.01-7.15-2.56
				c-2.81-0.61-5.29-0.51-8.02,0.24c-0.09,0.03-0.66,0.31-0.46,0.26c5.04-1.32,8.74-0.55,13.2,1.32c1.66,0.7,4.14,1.52,5.33,2.94
				C119.68,125.46,120.22,125.15,120.17,125.12z"/>
			<path class="st9" d="M120.25,124.96c-1.72-1.52-4.27-2.53-6.34-3.34c-2.16-0.84-4.34-1.46-6.65-1.68
				c-2.07-0.2-3.67,0.05-5.64,0.56c-0.41,0.1-0.47,0.74-0.06,0.64c2.17-0.51,4.46-0.71,6.66-0.35c1.87,0.31,3.68,0.9,5.44,1.59
				c2.09,0.82,4.34,1.76,6.12,3.14C120.14,125.81,120.59,125.26,120.25,124.96z"/>
			<path class="st9" d="M118.94,123.86c-1.38-1.51-3.85-2.53-5.69-3.29c-2.09-0.87-4.28-1.67-6.54-1.96
				c-2.42-0.31-4.5-0.1-6.86,0.55c-0.72,0.2,0.91,1.97,1.32,1.86c3.45-0.85,6.51-0.62,9.93,0.46c1.85,0.58,3.47,1.33,5.19,2.22
				c1.05,0.55,2.12,1.02,3.06,1.74c0.32,0.24,0.35,0.01,0.44-0.19C119.93,124.97,119.11,124.04,118.94,123.86z"/>
			<path class="st9" d="M119.49,125.25c-1.36-1.22-3.56-2.23-5.23-2.93c-1.38-0.58-2.83-1.1-4.28-1.48
				c-3.19-0.83-5.98-0.8-9.15,0.02c-0.22,0.06-0.37,0.74-0.04,0.65c3.07-0.87,5.78-0.9,8.89-0.1c3.33,0.86,6.83,2.17,9.46,4.41
				C119.31,125.95,119.66,125.4,119.49,125.25z"/>
			<path class="st9" d="M119.48,125.23c-1.76-1.43-3.88-2.46-5.96-3.34c-2.08-0.88-4.28-1.67-6.52-1.96
				c-2.41-0.32-4.51-0.12-6.88,0.48c-0.81,0.21,0.41,1.06,0.81,0.96c3.44-0.9,6.47-0.68,9.89,0.39c1.87,0.59,3.72,1.36,5.45,2.27
				c0.73,0.39,1.74,0.78,2.34,1.37c0.16,0.15,0.64,0.54,0.88,0.39C119.75,125.65,119.67,125.39,119.48,125.23z"/>
		</g>
	</g>
</g>
<g id="XMLID_20_">
	<g>
		<g>
			<path class="st9" d="M102.5,127c0-0.85-0.57-1.82-1.19-2.39c-2.81-2.54-8.06-0.42-10.95,0.5c-0.61,0.19,0.55,1.11,0.94,0.99
				c2-0.61,4.69-1.62,6.89-1.4c0.77,0.16,1.54,0.32,2.31,0.48c0.51,0.14,0.81,0.44,0.91,0.92C100.6,126.57,102.5,127.65,102.5,127z"
				/>
			<path class="st9" d="M102.44,126.94c0.13-1.02-0.38-2.54-1.14-3.25c-2.79-2.59-8.24-0.26-11.01,0.69
				c-0.4,0.14,0.54,1.72,1.08,1.55c2.83-0.87,8.65-3.08,10.52,0.52c-0.12-0.48-0.25-0.96-0.37-1.43c-0.06,0.1-0.12,0.2-0.18,0.3
				C100.6,125.75,102.37,127.46,102.44,126.94z"/>
			<path class="st9" d="M102.15,126.29c0.03,0.03-0.07-0.84-0.2-1.06c-0.5-0.87-1.45-1.38-2.43-1.54c-2.92-0.49-6.03,0.81-8.73,1.73
				c-0.36,0.12-0.34,0.21,0.03,0.09c3.34-2.02,6.49-2.39,9.44-1.11c0.92,0.23,1.37,0.95,1.36,2.15
				C101.6,126.65,102.19,126.33,102.15,126.29z"/>
			<path class="st9" d="M102.43,126.47c0.79-0.84-0.71-2.22-1.27-2.5c-3.02-1.5-7.11,0.12-9.97,1.04c-0.38,0.12-0.44,0.74-0.04,0.62
				c3.46-1.56,7.01-1.38,10.65,0.55C101.54,126.56,102.18,126.73,102.43,126.47z"/>
			<path class="st9" d="M101.99,126.42c0.1-0.97-0.42-2.03-1.03-2.76c-2.67-3.19-8.39-0.89-11.46,0.13
				c-0.71,0.23,0.85,1.78,1.24,1.66c2.93-0.93,8.03-2.93,10.52,0c-0.16-0.33-0.33-0.67-0.49-1c-0.1,0.06-0.2,0.12-0.29,0.18
				C99.53,124.59,101.9,127.27,101.99,126.42z"/>
			<path class="st9" d="M101.77,126.37c0.27-1.16-1.56-2.03-2.39-2.29c-2.98-0.93-6.23,0.35-9.01,1.26
				c-0.2,0.07-0.29,0.76,0.03,0.64c2.57-0.89,10.14-4.07,10.89,0.71C101.31,126.92,101.75,126.45,101.77,126.37z"/>
			<path class="st9" d="M101.85,126.62c0.06-0.82-0.43-1.59-1.03-2.12c-2.92-2.61-8.08-0.57-11.14,0.41
				c-0.77,0.24,0.4,1.01,0.8,0.88c2.01-0.65,3.94-1.32,6.07-1.47c0.55-0.09,1.1-0.09,1.64,0.01c1.06-0.03,1.85,0.51,2.39,1.62
				C99.94,126.18,101.79,127.57,101.85,126.62z"/>
		</g>
	</g>
</g>
<g id="XMLID_29_">
	<g>
		<g>
			<path class="st9" d="M90.52,133.24c-0.12-0.8-0.76-1.66-1.45-2.04c-1.42-0.8-2.94,0.14-4.2,0.82c-0.6,0.33,0.55,1.22,0.88,1.04
				c1.17-1.02,2.49-1.11,3.97-0.26c-0.15-0.22-0.29-0.45-0.44-0.67c0,0.11,0.01,0.22,0.01,0.33
				C88.79,133.02,90.6,133.81,90.52,133.24z"/>
			<path class="st9" d="M90.46,132.99c-0.12-0.77-0.42-1.81-0.98-2.39c-1.37-1.43-3.45-0.06-4.69,0.68c-0.44,0.26,0.53,1.84,1,1.59
				c0.66-0.59,1.41-0.85,2.26-0.79c0.87-0.28,1.51,0.05,1.92,0.98c-0.18-0.53-0.37-1.07-0.55-1.6c-0.06,0.08-0.12,0.15-0.18,0.23
				C88.79,132.27,90.6,133.9,90.46,132.99z"/>
			<path class="st9" d="M90.19,132.5c-0.27-0.33-0.38-0.81-0.77-1.11c-1.45-1.1-3.15,0.2-4.31,1.04c-0.15,0.11,0.1,0.04,0.13,0.02
				c0.86-0.66,1.81-0.94,2.84-0.86c0.96-0.32,1.48,0.08,1.56,1.21c-0.01,0,0.01,0.04,0.05,0.04
				C89.75,132.83,90.22,132.53,90.19,132.5z"/>
			<path class="st9" d="M90.44,132.71c0.25-0.8-0.36-1.52-1.08-1.8c-1.44-0.56-2.8,0.43-3.95,1.14c-0.38,0.23,0.14,0.57,0.47,0.39
				c0.79-0.79,1.66-0.95,2.63-0.48c0.78-0.23,1.22-0.07,1.31,0.46C89.67,132.86,90.33,133.05,90.44,132.71z"/>
			<path class="st9" d="M90,132.66c-0.08-0.98-0.79-2.22-1.59-2.77c-1.51-1.04-3.21,0.1-4.52,0.87c-0.38,0.22,0.91,1.82,1.43,1.55
				c1.85-1.37,3.19-1.42,4.05-0.14c-0.26-0.46-0.52-0.92-0.78-1.39c-0.03,0.03-0.07,0.05-0.1,0.08
				C87.4,131.09,90.06,133.31,90,132.66z"/>
			<path class="st9" d="M89.6,133.01c0.24-0.78-0.13-1.28-0.94-1.59c-1.35-0.51-2.68,0.3-3.83,0.89c-0.19,0.1-0.23,0.79,0.11,0.58
				c1.01-0.65,1.82-1.36,3.08-1.05c0.47,0.12,1.35,0.44,1.19,1.18C89.13,133.37,89.52,133.26,89.6,133.01z"/>
			<path class="st9" d="M89.87,132.87c-0.12-0.78-0.63-1.38-1.31-1.77c-1.55-0.89-3.09,0.05-4.49,0.79
				c-0.56,0.29,0.65,1.01,1.01,0.81c1.17-0.16,2.34-0.32,3.51-0.49C87.83,132.65,89.99,133.65,89.87,132.87z"/>
		</g>
	</g>
</g>
<path id="XMLID_31_" class="st8" d="M67.26,176.62c0,0,4.08-111.37,43.58-115.82c45.97-5.18,88.84-2.21,103,24.66
	s13.05,91.16,13.05,91.16s6.26-5.5,6.01-6.56s2.44-4.94,4.44-3.69s9.38-4.56,9.12-5.81s1.12-3.31,1.12-3.31s2.75-1.39,1.69-3.88
	c-1.06-2.49-3.56-3.12-2.19-3.8s3.81-0.12,3.38-2.5c-0.44-2.38-0.81-3-2.5-3.44c-1.69-0.44,1-2.62,1-2.62s4.88-5.69,0.06-9
	c-4.81-3.31,0.31-9.12,0.56-9.12s0-6.62,1.81-6.56c1.81,0.06,4.06-7,3.25-8.44c-0.81-1.44-1.94-7.19-0.12-7.19
	c1.81,0,0.81-6.12-2.12-8.06c-2.94-1.94-1.94-6.31-1.19-6.5s4.69-9.31,1.81-12.62s-9.44-0.31-9.44-0.31s8.19-15.69,5.56-20.5
	s-7.88-14.31-13.19-9.75c-5.31,4.56-9.44-5.44-9.44-5.44s-10.44-8.12-15.25-5.56s-6.38-5.25-6.38-5.25s-9-15.62-30.06-19.88
	s-9.56-8.06-37.88-6.5S94.71,14.62,94.71,14.62S70.83,30.5,70.58,33.5s-17.25,13-17.25,13s-6.25,4.25-3,6.75s-5,7.25-5,7.25
	s-5.75,13.75-3.25,21s0.75,17.75,5.75,25.25s-4.5,22.65-4.5,22.65s-0.25,6.85,4,9.1s-3.25,11.56-3.25,11.56s-2.95,7.2,10.25,9.19
	s4.83,3.5,4.83,3.5S59.43,175.74,67.26,176.62z"/>
<g id="XMLID_32_">
	<path id="XMLID_91_" class="st10" d="M110.83,11.33c0,0,1.12,0.03,3.08,0.2c1.95,0.19,4.75,0.45,8.08,0.97
		c3.33,0.51,7.2,1.24,11.3,2.28c2.04,0.53,4.16,1.09,6.27,1.79c2.11,0.69,4.24,1.46,6.34,2.33c2.09,0.88,4.14,1.88,6.1,2.98
		c1.97,1.09,3.8,2.36,5.46,3.74c1.67,1.37,3.11,2.94,4.23,4.6c1.14,1.66,1.87,3.46,2.22,5.18c0.37,1.72,0.31,3.35,0.08,4.73
		c-0.25,1.38-0.62,2.53-0.99,3.45c-0.38,0.92-0.74,1.6-1.01,2.06c-0.26,0.46-0.4,0.7-0.4,0.7s0.1-0.26,0.3-0.75
		c0.21-0.48,0.45-1.21,0.74-2.14c0.27-0.93,0.52-2.08,0.62-3.41c0.08-1.33-0.02-2.83-0.45-4.37c-0.45-1.54-1.22-3.12-2.32-4.59
		c-1.11-1.47-2.52-2.84-4.12-4.09c-1.6-1.26-3.4-2.38-5.29-3.42c-1.89-1.04-3.89-1.98-5.93-2.82c-2.03-0.86-4.11-1.64-6.17-2.34
		c-2.07-0.69-4.12-1.36-6.12-1.93c-4-1.16-7.79-2.1-11.05-2.85c-3.26-0.74-5.99-1.35-7.92-1.71
		C111.93,11.55,110.83,11.33,110.83,11.33z"/>
</g>
<g id="XMLID_39_">
	<path id="XMLID_89_" class="st11" d="M87.95,22.33c0,0,1.15-0.5,3.22-1.19c1.04-0.34,2.31-0.74,3.78-1.15
		c1.47-0.41,3.14-0.86,4.98-1.22c1.84-0.4,3.85-0.75,6-1.03c2.15-0.25,4.42-0.52,6.79-0.56c2.36-0.08,4.82-0.05,7.3,0.18
		c1.24,0.13,2.49,0.25,3.74,0.48c1.25,0.17,2.5,0.46,3.74,0.74c1.24,0.28,2.45,0.7,3.66,1.07l1.78,0.68l0.88,0.34l0.86,0.41
		c0.57,0.27,1.13,0.54,1.7,0.81c0.55,0.29,1.08,0.63,1.61,0.94c1.08,0.59,2.06,1.33,3.03,2.04l0.72,0.53l0.67,0.58
		c0.44,0.39,0.88,0.78,1.31,1.16c0.85,0.78,1.57,1.66,2.32,2.45c0.71,0.83,1.32,1.71,1.95,2.52c0.61,0.83,1.07,1.71,1.57,2.52
		c0.52,0.8,0.89,1.63,1.26,2.41c0.35,0.79,0.75,1.5,0.99,2.24c0.5,1.45,1.02,2.68,1.29,3.75c0.56,2.12,0.84,3.33,0.84,3.33
		s-0.46-1.17-1.21-3.21c-0.36-1.03-0.99-2.19-1.6-3.57c-0.29-0.69-0.76-1.36-1.16-2.09c-0.43-0.73-0.82-1.52-1.38-2.25
		c-0.54-0.74-1.04-1.57-1.67-2.32c-0.65-0.74-1.27-1.56-1.99-2.32c-0.76-0.72-1.48-1.52-2.32-2.22c-0.42-0.35-0.85-0.7-1.29-1.05
		l-0.65-0.54l-0.7-0.48c-0.94-0.64-1.88-1.31-2.93-1.85c-0.51-0.28-1.02-0.59-1.55-0.84c-0.54-0.25-1.08-0.5-1.62-0.75l-0.81-0.38
		l-0.85-0.31l-1.7-0.63c-1.16-0.34-2.32-0.73-3.51-0.99c-1.19-0.28-2.37-0.57-3.58-0.74c-1.2-0.23-2.41-0.35-3.6-0.49
		c-1.2-0.12-2.4-0.19-3.58-0.27c-1.19-0.03-2.36-0.1-3.51-0.07c-2.31-0.01-4.54,0.13-6.66,0.28c-2.11,0.19-4.12,0.4-5.95,0.67
		c-1.84,0.26-3.52,0.55-5.01,0.82c-1.49,0.28-2.78,0.55-3.84,0.8C89.16,22,87.95,22.33,87.95,22.33z"/>
</g>
<g id="XMLID_40_">
	<path id="XMLID_87_" class="st12" d="M74.67,50.33c0,0,0.91-0.9,2.61-2.35c1.71-1.43,4.17-3.48,7.31-5.69
		c1.57-1.1,3.29-2.27,5.18-3.42c1.88-1.15,3.89-2.33,6.05-3.4c2.15-1.1,4.42-2.14,6.8-3.04c1.2-0.42,2.4-0.89,3.64-1.23
		c0.62-0.18,1.24-0.38,1.86-0.55l1.9-0.44c0.63-0.16,1.28-0.26,1.92-0.35c0.65-0.09,1.29-0.2,1.93-0.28
		c1.31-0.07,2.59-0.25,3.89-0.17c2.59-0.06,5.14,0.5,7.51,1.21c1.15,0.48,2.33,0.83,3.34,1.49c0.52,0.3,1.03,0.59,1.53,0.89
		c0.46,0.36,0.92,0.71,1.37,1.05c0.94,0.65,1.67,1.47,2.41,2.23c0.78,0.72,1.32,1.6,1.92,2.37c0.28,0.4,0.59,0.76,0.83,1.16
		c0.23,0.41,0.45,0.8,0.67,1.19c0.41,0.79,0.88,1.48,1.16,2.22c0.3,0.72,0.59,1.4,0.85,2.02c0.27,0.62,0.51,1.19,0.65,1.74
		c0.66,2.14,1,3.37,1,3.37s-0.52-1.17-1.36-3.22c-0.19-0.52-0.48-1.06-0.79-1.65c-0.31-0.59-0.65-1.23-1-1.91
		c-0.33-0.69-0.86-1.33-1.32-2.05c-0.24-0.36-0.48-0.72-0.73-1.1c-0.25-0.37-0.58-0.7-0.87-1.06c-0.62-0.7-1.18-1.5-1.96-2.13
		c-0.74-0.67-1.45-1.42-2.36-1.98c-0.43-0.3-0.87-0.61-1.31-0.92c-0.48-0.25-0.96-0.5-1.46-0.75c-0.95-0.56-2.05-0.86-3.11-1.27
		c-2.2-0.6-4.56-1.01-6.98-0.95c-1.21-0.07-2.43,0.13-3.66,0.2c-0.61,0.08-1.22,0.19-1.83,0.29c-0.61,0.09-1.22,0.2-1.83,0.35
		l-1.82,0.41c-0.6,0.16-1.2,0.34-1.8,0.51c-1.2,0.31-2.37,0.77-3.53,1.16c-1.15,0.44-2.3,0.88-3.42,1.34
		c-1.11,0.49-2.22,0.94-3.28,1.47c-2.14,1.01-4.17,2.06-6.07,3.11c-1.9,1.06-3.67,2.1-5.3,3.09c-3.23,2-5.89,3.75-7.7,5.04
		C75.69,49.57,74.67,50.33,74.67,50.33z"/>
</g>
<g id="XMLID_41_">
	<path id="XMLID_85_" class="st12" d="M51.67,73c0,0,0.4-0.56,1.2-1.45c0.81-0.87,1.99-2.13,3.61-3.42c0.8-0.66,1.71-1.3,2.69-1.97
		c1-0.63,2.07-1.3,3.25-1.84c1.17-0.56,2.41-1.08,3.73-1.46c1.3-0.42,2.68-0.67,4.05-0.87c1.39-0.13,2.78-0.2,4.15-0.09l1.02,0.08
		c0.34,0.05,0.67,0.11,1,0.16c0.67,0.08,1.31,0.25,1.94,0.4c1.26,0.31,2.45,0.73,3.54,1.21c0.27,0.12,0.54,0.23,0.81,0.34
		c0.26,0.13,0.51,0.26,0.76,0.39c0.49,0.26,0.98,0.48,1.42,0.76c0.88,0.54,1.69,1.02,2.35,1.54c0.67,0.5,1.27,0.91,1.71,1.32
		c0.91,0.78,1.42,1.23,1.42,1.23s-0.56-0.39-1.54-1.07c-0.47-0.36-1.1-0.72-1.8-1.16c-0.69-0.46-1.53-0.86-2.42-1.36
		c-0.44-0.25-0.94-0.44-1.43-0.67c-0.25-0.11-0.5-0.23-0.76-0.34c-0.26-0.1-0.53-0.19-0.8-0.29c-0.54-0.2-1.09-0.42-1.68-0.56
		c-0.59-0.15-1.17-0.36-1.79-0.47c-0.61-0.13-1.23-0.28-1.88-0.34c-0.64-0.1-1.29-0.17-1.94-0.19c-1.31-0.1-2.65-0.01-3.97,0.12
		c-1.32,0.19-2.64,0.41-3.9,0.8c-1.26,0.36-2.49,0.81-3.63,1.33c-2.3,1.03-4.33,2.25-5.97,3.45c-1.64,1.19-2.94,2.29-3.81,3.11
		C52.13,72.5,51.67,73,51.67,73z"/>
</g>
<g id="XMLID_45_">
	<path id="XMLID_93_" class="st10" d="M139,6.33c0,0,1.04-0.02,2.86,0.08c1.82,0.12,4.42,0.28,7.52,0.73
		c1.55,0.21,3.23,0.5,4.99,0.85c1.76,0.37,3.62,0.77,5.51,1.33c0.95,0.27,1.91,0.55,2.87,0.87c0.97,0.3,1.93,0.66,2.9,1.04
		c0.97,0.36,1.92,0.82,2.89,1.23c0.94,0.48,1.91,0.91,2.83,1.45c1.86,1.03,3.61,2.3,5.22,3.68c0.39,0.36,0.76,0.75,1.14,1.12
		l0.55,0.56l0.49,0.62c0.32,0.42,0.66,0.82,0.96,1.24c0.27,0.45,0.54,0.89,0.8,1.33c0.29,0.43,0.47,0.91,0.67,1.38
		c0.18,0.47,0.43,0.92,0.54,1.4c0.22,0.97,0.53,1.89,0.55,2.84c0.04,0.47,0.08,0.93,0.12,1.38c-0.03,0.45-0.06,0.9-0.09,1.33
		c-0.05,0.43-0.04,0.87-0.13,1.28c-0.09,0.41-0.18,0.81-0.27,1.2c-0.09,0.39-0.18,0.77-0.26,1.15c-0.13,0.36-0.26,0.71-0.39,1.05
		c-0.28,0.67-0.47,1.33-0.77,1.9c-0.61,1.13-1.06,2.15-1.58,2.91c-1.01,1.53-1.6,2.38-1.6,2.38s0.45-0.95,1.26-2.56
		c0.43-0.8,0.75-1.85,1.23-3c0.23-0.58,0.35-1.24,0.54-1.91c0.09-0.33,0.19-0.68,0.28-1.03c0.05-0.36,0.1-0.73,0.16-1.1
		c0.05-0.37,0.11-0.75,0.17-1.14c0.05-0.39,0.01-0.79,0.02-1.19c0-0.4,0.01-0.81,0.01-1.22c-0.06-0.41-0.12-0.82-0.18-1.24
		c-0.06-0.85-0.39-1.66-0.63-2.51c-0.12-0.42-0.37-0.81-0.54-1.22c-0.19-0.41-0.36-0.83-0.63-1.2c-0.9-1.61-2.28-2.97-3.7-4.3
		c-1.51-1.25-3.15-2.42-4.93-3.38c-0.86-0.53-1.79-0.94-2.68-1.42c-0.93-0.4-1.83-0.86-2.77-1.21c-1.86-0.75-3.72-1.45-5.56-2.02
		c-1.83-0.58-3.63-1.1-5.34-1.56c-1.72-0.43-3.34-0.84-4.86-1.17c-1.51-0.33-2.91-0.63-4.14-0.88c-1.24-0.25-2.32-0.44-3.22-0.59
		C140.03,6.49,139,6.33,139,6.33z"/>
</g>
<g id="XMLID_46_">
	<path id="XMLID_95_" class="st11" d="M180.77,8.4c0,0,2.6,1.73,6.04,4.91c1.72,1.58,3.65,3.52,5.56,5.75
		c0.95,1.12,1.92,2.29,2.83,3.54c0.9,1.25,1.81,2.54,2.62,3.89c0.82,1.35,1.55,2.75,2.22,4.16c0.66,1.42,1.2,2.87,1.62,4.3
		c0.2,0.72,0.42,1.42,0.53,2.14c0.07,0.35,0.13,0.71,0.2,1.05c0.04,0.35,0.08,0.7,0.12,1.04c0.16,1.37,0.13,2.68,0,3.87
		c-0.03,0.6-0.18,1.16-0.28,1.7c-0.09,0.54-0.26,1.03-0.42,1.49c-0.26,0.93-0.69,1.67-0.98,2.29c-0.31,0.61-0.66,1.03-0.85,1.34
		c-0.2,0.3-0.31,0.46-0.31,0.46s0.08-0.18,0.22-0.52c0.13-0.34,0.37-0.82,0.58-1.45c0.18-0.65,0.47-1.41,0.61-2.32
		c0.09-0.45,0.19-0.93,0.21-1.45c0.03-0.51,0.13-1.04,0.09-1.61c-0.02-0.56,0.01-1.14-0.08-1.75c-0.07-0.6-0.1-1.22-0.25-1.85
		c-0.06-0.32-0.12-0.63-0.18-0.96c-0.09-0.32-0.17-0.64-0.26-0.97c-0.16-0.65-0.38-1.31-0.6-1.98c-0.2-0.67-0.51-1.33-0.77-2
		c-0.3-0.66-0.61-1.33-0.91-2.01c-0.67-1.33-1.38-2.66-2.19-3.95c-0.76-1.31-1.62-2.57-2.48-3.8c-0.87-1.22-1.74-2.43-2.62-3.55
		c-0.89-1.12-1.75-2.22-2.6-3.23c-0.86-1.01-1.67-1.96-2.42-2.83C182.94,10.63,180.77,8.4,180.77,8.4z"/>
</g>
<g id="XMLID_47_">
	<path id="XMLID_101_" class="st10" d="M219.45,70.67c0,0,2.1,0.68,5.25,1.69c1.57,0.5,3.39,1.08,5.35,1.68
		c0.98,0.29,1.99,0.58,3.02,0.88c1.03,0.29,2.08,0.57,3.13,0.82c2.1,0.54,4.21,0.96,6.2,1.25c1,0.13,1.96,0.23,2.88,0.3
		c0.92,0.03,1.78,0.05,2.58,0c0.8-0.06,1.52-0.15,2.16-0.27c0.63-0.16,1.19-0.29,1.63-0.47c0.46-0.15,0.78-0.33,1.02-0.44
		c0.24-0.11,0.36-0.17,0.36-0.17s-0.1,0.09-0.3,0.26c-0.2,0.16-0.47,0.46-0.9,0.7c-0.41,0.29-0.94,0.56-1.58,0.85
		c-0.33,0.12-0.68,0.24-1.04,0.37c-0.37,0.12-0.77,0.2-1.19,0.3c-0.42,0.09-0.86,0.15-1.32,0.23c-0.46,0.05-0.93,0.08-1.42,0.12
		c-0.97,0.04-2,0.05-3.06-0.04c-1.05-0.09-2.14-0.18-3.23-0.39c-1.09-0.18-2.19-0.42-3.27-0.68c-2.17-0.56-4.29-1.23-6.24-1.98
		c-0.98-0.36-1.9-0.76-2.78-1.14c-0.88-0.37-1.69-0.77-2.43-1.14C221.28,71.94,219.45,70.67,219.45,70.67z"/>
</g>
<g id="XMLID_48_">
	<path id="XMLID_99_" class="st10" d="M253.02,75.94c0,0,0,0.15,0,0.42c0,0.14,0,0.3,0,0.5c-0.02,0.2-0.08,0.42-0.14,0.69
		c-0.04,0.28-0.18,0.53-0.32,0.83c-0.12,0.31-0.33,0.59-0.56,0.88c-0.45,0.61-1.1,1.16-1.85,1.68c-0.38,0.24-0.8,0.48-1.23,0.71
		c-0.44,0.2-0.9,0.43-1.38,0.6c-0.96,0.36-1.99,0.7-3.07,0.93c-1.08,0.25-2.2,0.46-3.35,0.61c-1.15,0.15-2.31,0.25-3.48,0.33
		c-1.17,0.05-2.33,0.08-3.48,0.09c-1.14,0.01-2.27-0.05-3.36-0.09c-2.17-0.11-4.19-0.31-5.91-0.56c-3.45-0.46-5.69-1.08-5.69-1.08
		s2.32-0.06,5.77-0.07c1.72-0.02,3.72-0.04,5.87-0.06c1.07-0.03,2.17-0.05,3.3-0.08c1.12-0.03,2.26-0.08,3.39-0.15
		c1.13-0.06,2.26-0.14,3.37-0.25c1.1-0.13,2.19-0.22,3.22-0.41c1.04-0.17,2.03-0.37,2.95-0.62c0.92-0.25,1.76-0.55,2.51-0.89
		c0.72-0.37,1.38-0.74,1.85-1.2c0.25-0.22,0.47-0.43,0.63-0.67c0.18-0.23,0.35-0.44,0.43-0.65c0.1-0.21,0.21-0.4,0.28-0.59
		c0.05-0.19,0.09-0.35,0.13-0.48C252.98,76.08,253.02,75.94,253.02,75.94z"/>
</g>
<g id="XMLID_49_">
	<path id="XMLID_97_" class="st10" d="M221.67,88.29c0,0,2.32-0.04,5.75-0.16c1.72-0.07,3.71-0.18,5.83-0.36
		c1.06-0.08,2.15-0.23,3.25-0.35c1.1-0.13,2.21-0.32,3.31-0.54c1.1-0.22,2.19-0.45,3.23-0.77c1.05-0.31,2.05-0.66,3-1.07
		c0.93-0.44,1.81-0.88,2.57-1.42c0.38-0.27,0.75-0.53,1.07-0.83c0.17-0.14,0.33-0.28,0.49-0.42c0.14-0.16,0.28-0.31,0.42-0.46
		c0.29-0.29,0.51-0.61,0.73-0.92c0.11-0.15,0.22-0.3,0.32-0.45c0.08-0.16,0.17-0.31,0.24-0.46c0.35-0.58,0.53-1.15,0.72-1.61
		c0.16-0.47,0.24-0.86,0.32-1.12c0.07-0.26,0.11-0.4,0.11-0.4s0,0.14,0,0.42c-0.01,0.27,0.03,0.68-0.04,1.19
		c-0.09,0.51-0.14,1.15-0.4,1.83c-0.06,0.18-0.12,0.36-0.18,0.54c-0.08,0.18-0.17,0.36-0.26,0.54c-0.17,0.38-0.38,0.76-0.65,1.13
		c-0.13,0.19-0.26,0.38-0.4,0.58c-0.16,0.18-0.31,0.36-0.48,0.55c-0.31,0.39-0.7,0.72-1.1,1.06c-0.79,0.69-1.72,1.3-2.72,1.83
		c-1.01,0.5-2.07,1-3.2,1.33c-1.11,0.37-2.27,0.64-3.42,0.89c-1.16,0.21-2.33,0.38-3.48,0.49c-1.15,0.12-2.28,0.16-3.38,0.19
		c-1.09,0.04-2.15,0-3.15-0.04c-1-0.04-1.94-0.12-2.81-0.21C223.91,88.92,221.67,88.29,221.67,88.29z"/>
</g>
</svg>
