<?xml version="1.0" encoding="utf-8"?>
<!-- Generator: Adobe Illustrator 23.0.1, SVG Export Plug-In . SVG Version: 6.00 Build 0)  -->
<svg version="1.1" id="Layer_1" xmlns="http://www.w3.org/2000/svg" xmlns:xlink="http://www.w3.org/1999/xlink" x="0px" y="0px"
	 viewBox="0 0 64 64" style="enable-background:new 0 0 64 64;" xml:space="preserve">
<style type="text/css">
	.st0{fill:#FAD9D0;}
	.st1{fill:#BF5053;}
	.st2{fill:#F1E0DA;}
	.st3{fill:#F5DDD6;}
	.st4{fill:#7E3235;}
	.st5{fill:#2D180F;}
	.st6{fill:#683722;}
	.st7{fill:#462517;}
	.st8{fill:#492718;}
	.st9{opacity:0.1797;fill:#492718;enable-background:new    ;}
	.st10{fill:#C17A28;}
	.st11{fill:#A16C3C;}
	.st12{fill:#9A6B47;}
</style>
<g id="XMLID_81_">
	<path id="XMLID_13_" class="st0" d="M47.4,46.2c0,0,2.2,0.3,5.1-3.3c2.9-3.6,2-6.8,2-6.8s-0.4-1.8-1.4-2.6s-3.2,0-3.5,1
		C49.6,34.5,45.1,37.9,47.4,46.2z"/>
	<path id="XMLID_61_" class="st1" d="M48.1,38.6c0,0,1.4,0,1.9,0.7s0.5,1.7,0.5,1.7s-0.4,2-1.8,1.8c-1.4-0.2-0.7-1.1-0.7-1.1
		s0.3-0.5,0.3-0.9c-0.1-0.5-0.3-0.9-0.4-1C47.7,39.6,47.9,38.6,48.1,38.6z"/>
	<path id="XMLID_50_" class="st1" d="M52.2,34.8c0.8,0.6,1.8,1.5,1.1,3.9c-0.7,2.4-3.1,5.1-3.1,5.1s-1,0.5-1,0.1
		c0-0.4,0.8-0.7,0.8-0.7s0.6,0,0.6-0.6c0-0.6,0.5-1,0.7-1.3C55,37,51.1,33.9,52.2,34.8z"/>
</g>
<path id="XMLID_7_" class="st2" d="M32.4,62.8c0,0-4.8,1.6-10.2-5.7s-5.3-9.7-5.3-9.7s-0.6-7.9-1.6-9.1c-1-1.1,0.2-14.7,2.4-19.5
	s9-6.5,9-6.5s11.8-1.9,16.4,2.7s5.1,12.8,5.1,12.8s0.3,9.4,0,11s-0.5,10.1-3.1,13.7C42.5,55.9,39.3,62.4,32.4,62.8z"/>
<path id="XMLID_11_" class="st3" d="M32.2,15c0,0,0.6,4-1.4,4.3c-2,0.3-5.9,0.1-5.2,2c0.8,1.9,4.1,3.9,4.5,4.9
	c0.5,1.1,1.3,3.7,1.3,4.4c0,0.7,1.1,5.3,0.2,7.8s-0.2,3-0.2,3s0.1,0.2,0.5,0.2s1.5-0.3,1.5-0.3s1-0.1,1.4,0.3S36,42,36,42
	s0.8-0.1,0.8-0.2c0-0.1,0.7-0.1,0.7,0.2c0,0.3-0.6,1.6-1,2s-1.9,1.6-2.4,1.8c-0.5,0.2-1.6,0.6-2.5,0.5c-0.9-0.1-3-0.6-3.5-0.9
	c-0.5-0.3-1.4-0.4-1.3-0.2c0,0.2-1.5,0.2-1.8-0.1c-0.3-0.3-0.3-0.6-0.8-0.5c-0.5,0-1.4-0.5-1.6-0.1c-0.2,0.4,0.1-0.6,0.1-0.6
	s-2.1,1.9-2.1,2.5s-0.8,0.2-0.8,0.2s-2.2-2.9-2-3.9c0.2-1-0.2-1.8-0.2-1.8s-1.8-2.4-1.4-2.7c0.4-0.3,0.6-3.6,0.6-3.6
	s0.3-7.4,1.3-8.2c1-0.8-0.5-4.8-0.5-4.8s-1-1.5,0-2.5c1-1,2.8-3.8,2.8-3.8S27.7,10.4,32.2,15z"/>
<path id="XMLID_1_" class="st3" d="M14.9,32.6c0,0-2.8-0.6-4,0.7s-1.8,3.9-1.4,5c0.4,1.1,1,2.4,0.9,3.5c-0.2,1.1,2.6,2.7,2.6,2.7
	s2.4,2.2,3.7,1.1C18,44.4,14.9,32.6,14.9,32.6z"/>
<path id="XMLID_17_" class="st4" d="M15.2,42.1L15,41.4c0,0-3.6,1-1.9-2.8s2.2,0.1,2.2,0.1s-0.7,0.8-0.5,1.5
	c0.3,0.7,0.7,2.2,0.7,2.2L15.2,42.1z"/>
<path id="XMLID_51_" class="st4" d="M13.5,43.1c0,0-2-0.4-2-1.8s-0.9-2-0.9-2s-0.6-0.8-0.3-1.8s0.6-3.5,1.1-3.3
	c0.5,0.2-1.6,3.9,0.1,5.6c0.4,0.4,0.1,1.4,0.1,1.4s0.2,0.9,1,1.2C13.3,42.5,14.3,42.3,13.5,43.1z"/>
<path id="XMLID_71_" class="st0" d="M16.5,38.3c0,0,0.1,1.2,1.1,1.9c1,0.7,3.2,2.9,2.2,5.9c-0.9,3,3.2,7.7,3.2,7.7s3.5,6.6,3.5,7.4
	c0,0.8-2.9-2-2.9-2s-5.1-5.7-5.3-6.7c-0.3-1-1.6-3.7-1.6-4.7c0-1-0.3-5.4-0.6-5.4c-0.3,0-2.1-4.3-1.7-4.7c0.3-0.5,0-1.5,0-1.5
	s0-1.7,0.3-2.5c0.3-0.8-0.1-5.5,0.5-6c0.6-0.5,1.1-4.9,1.1-4.9s0.2-3.3,0.6-3.1s1.1,3.3,1.1,3.3s1.2,0.9,0.3,3.9s-1.6,6.4-1.6,7.9
	C16.9,36.4,16.5,38.3,16.5,38.3z"/>
<path id="XMLID_9_" class="st2" d="M29.8,39.3c3.3-6.6-1-12-1-12s-0.7-0.7,0.8-0.5c1.5,0.2,4.5,9.7,4.5,12.1
	C34.2,44.1,29.8,39.3,29.8,39.3z"/>
<path id="XMLID_8_" class="st5" d="M37.4,27.7c0,0,2.1-2.4,5.9-1c3.7,1.3,3.3,3.1,3.3,3.1s-0.2-0.2-0.6-0.5
	c-0.2-0.1-0.3-0.2-0.5-0.4c-0.4-0.3-1-0.5-1.6-0.7c-0.2-0.1-0.5-0.1-0.7-0.1c-0.8-0.1-1.4-0.3-2-0.4c-0.3-0.1-0.7-0.1-1.1-0.2
	c-0.2,0-0.5,0-0.7,0C38.8,27.4,38.2,27.5,37.4,27.7z"/>
<g id="XMLID_16_">
	<g>
		<g>
			<g>
				<g>
					<path class="st6" d="M45.8,28.5C45.8,28.6,45.8,28.5,45.8,28.5C45.8,28.5,45.8,28.6,45.8,28.5z"/>
					<polygon class="st6" points="45.5,28.5 45.5,28.5 45.4,28.5 					"/>
					<path class="st6" d="M45.4,28.4C45.3,28.5,45.4,28.4,45.4,28.4l0,0.1l0.1-0.1C45.5,28.4,45.4,28.4,45.4,28.4z"/>
					<path class="st6" d="M45.6,28.1C45.5,28.1,45.5,28.1,45.6,28.1C45.6,28.1,45.6,28.1,45.6,28.1C45.6,28.1,45.6,28.1,45.6,28.1z"
						/>
					<path class="st6" d="M45.6,28.1C45.6,28.1,45.6,28.1,45.6,28.1L45.6,28.1z"/>
					<path class="st6" d="M45.5,28.1L45.5,28.1C45.6,28,45.5,28,45.5,28.1C45.5,28,45.5,28,45.5,28.1z"/>
					<path class="st6" d="M45.4,28.1L45.4,28.1C45.4,28.1,45.4,28.1,45.4,28.1z"/>
					<path class="st6" d="M45.5,28.1L45.5,28.1C45.4,28.1,45.4,28.2,45.5,28.1C45.4,28.1,45.4,28.1,45.5,28.1z"/>
					<path class="st6" d="M45.5,28.1C45.4,28.2,45.4,28.2,45.5,28.1C45.4,28.2,45.5,28.1,45.5,28.1z"/>
					<path class="st6" d="M45.3,28.5L45.3,28.5L45.3,28.5C45.3,28.5,45.3,28.4,45.3,28.5z"/>
					<path class="st6" d="M45.4,27.9C45.4,27.9,45.4,27.9,45.4,27.9L45.4,27.9C45.4,27.9,45.4,27.9,45.4,27.9z"/>
					<path class="st6" d="M45.3,28L45.3,28C45.3,28,45.3,28,45.3,28z"/>
					<polygon class="st6" points="45.3,28.2 45.4,28.2 45.2,28.2 					"/>
					<polygon class="st6" points="45.3,27.8 45.4,27.8 45.3,27.8 					"/>
					<path class="st6" d="M45.3,27.8c0.1,0,0.1-0.1,0.1-0.1C45.3,27.6,45.3,27.7,45.3,27.8C45.3,27.7,45.3,27.7,45.3,27.8z"/>
					<path class="st6" d="M45.2,27.7C45.2,27.7,45.2,27.7,45.2,27.7C45.2,27.7,45.2,27.7,45.2,27.7z"/>
					<path class="st6" d="M45.2,28C45.3,27.9,45.3,27.9,45.2,28L45.2,28L45.2,28z"/>
					<path class="st6" d="M45.2,27.9L45.2,27.9C45.2,27.9,45.2,27.9,45.2,27.9C45.2,27.9,45.2,27.9,45.2,27.9z"/>
					<path class="st6" d="M45.2,28L45.2,28C45.2,28,45.2,28,45.2,28z"/>
					<path class="st6" d="M45.3,28.1c0,0-0.1,0-0.1,0.1C45.2,28.2,45.2,28.1,45.3,28.1z"/>
					<path class="st6" d="M45.2,28L45.2,28C45.2,28.1,45.2,28,45.2,28L45.2,28z"/>
					<polygon class="st6" points="45.2,28.1 45.2,28 45.2,28 					"/>
					<path class="st6" d="M45.2,27.8C45.1,27.8,45.1,27.8,45.2,27.8C45.1,27.9,45.1,27.9,45.2,27.8C45.1,27.9,45.2,27.8,45.2,27.8z"
						/>
					<path class="st6" d="M45.2,27.9L45.2,27.9C45.2,27.9,45.2,27.9,45.2,27.9z"/>
					<path class="st6" d="M45,27.7C45,27.7,45,27.7,45,27.7L45,27.7L45,27.7z"/>
					<path class="st6" d="M45.1,27.9C45.1,27.9,45.1,27.9,45.1,27.9C45.1,27.9,45.1,27.9,45.1,27.9C45.1,27.9,45.1,27.9,45.1,27.9z"
						/>
					<path class="st6" d="M45.1,27.7C45.1,27.7,45.1,27.8,45.1,27.7C45.1,27.8,45.1,27.7,45.1,27.7z"/>
					<path class="st6" d="M45.2,27.9L45.2,27.9C45.2,27.9,45.2,27.9,45.2,27.9z"/>
					<path class="st6" d="M45.2,27.9C45.2,27.9,45.2,27.9,45.2,27.9C45.2,27.9,45.2,27.9,45.2,27.9C45.2,27.9,45.2,27.9,45.2,27.9z"
						/>
					<path class="st6" d="M44.6,28.2C44.6,28.1,44.7,28,44.6,28.2c0.2-0.1,0.3-0.3,0.4-0.4c0,0,0,0.1-0.1,0.1c0,0,0,0.1-0.1,0.2
						c-0.1,0,0,0,0-0.1C44.7,28,44.7,28,44.6,28.2L44.6,28.2C44.6,28.1,44.6,28.1,44.6,28.2z"/>
					<path class="st6" d="M45,27.8L45,27.8c0,0,0-0.1,0.1-0.1C45,27.7,45,27.7,45,27.8L45,27.8L45,27.8z"/>
					<path class="st6" d="M45.1,27.8C45,27.9,45,27.9,44.9,28c0,0,0.1,0,0.1-0.1C45,27.9,45.1,27.9,45.1,27.8
						C45.1,27.8,45.1,27.8,45.1,27.8C45.1,27.8,45.1,27.8,45.1,27.8L45.1,27.8L45.1,27.8L45.1,27.8C45.1,27.8,45.1,27.8,45.1,27.8
						L45.1,27.8C45.1,27.8,45.1,27.8,45.1,27.8C45.1,27.8,45.1,27.8,45.1,27.8L45.1,27.8L45.1,27.8C45.1,27.8,45.1,27.8,45.1,27.8
						C45,27.8,45,27.8,45.1,27.8z"/>
					<path class="st6" d="M45,28.3C45,28.3,45,28.3,45,28.3C45,28.3,45,28.3,45,28.3z"/>
					<path class="st6" d="M45,28.3C45,28.3,45,28.3,45,28.3C45,28.3,45,28.3,45,28.3C45,28.3,45,28.3,45,28.3L45,28.3
						c0.1-0.1,0.1-0.2,0.1-0.2C45.1,28.2,45,28.2,45,28.3z"/>
					<path class="st6" d="M45,28.1L45,28.1L45,28.1L45,28.1C45,28.1,45,28.1,45,28.1z"/>
					<polygon class="st6" points="45,27.7 45.1,27.6 45,27.7 					"/>
					<polygon class="st6" points="44.9,27.7 45,27.6 45,27.6 					"/>
					<path class="st6" d="M41.6,27.5L41.6,27.5C41.6,27.5,41.6,27.5,41.6,27.5z"/>
					<path class="st6" d="M41.7,27.5L41.7,27.5C41.7,27.5,41.7,27.5,41.7,27.5z"/>
					<path class="st6" d="M43.6,26.9c0-0.1,0-0.2,0-0.1V26.9C43.6,26.9,43.6,26.9,43.6,26.9z"/>
					<path class="st6" d="M42.5,27.1C42.5,27.1,42.5,27.2,42.5,27.1C42.5,27.1,42.5,27.1,42.5,27.1C42.5,27.1,42.5,27.1,42.5,27.1z"
						/>
					<path class="st6" d="M42.4,27.5L42.4,27.5C42.4,27.5,42.4,27.5,42.4,27.5z"/>
					<path class="st6" d="M41.1,27.5L41.1,27.5C41.1,27.6,41.1,27.6,41.1,27.5z"/>
					<path class="st6" d="M44.4,27.3C44.4,27.3,44.4,27.3,44.4,27.3C44.4,27.3,44.3,27.4,44.4,27.3z"/>
					<path class="st6" d="M41.8,26.5C41.7,26.5,41.7,26.5,41.8,26.5C41.7,26.6,41.8,26.5,41.8,26.5z"/>
					<path class="st6" d="M44.3,27.2C44.3,27.2,44.3,27.2,44.3,27.2C44.4,27.2,44.4,27.2,44.3,27.2C44.4,27.2,44.4,27.2,44.3,27.2z"
						/>
					<path class="st6" d="M39.4,27.5C39.4,27.5,39.4,27.5,39.4,27.5C39.4,27.5,39.4,27.5,39.4,27.5z"/>
					<path class="st6" d="M38.7,26.7C38.7,26.7,38.7,26.7,38.7,26.7C38.7,26.6,38.7,26.6,38.7,26.7z"/>
					<path class="st6" d="M44.8,27.5C44.8,27.5,44.8,27.5,44.8,27.5L44.8,27.5z"/>
					<path class="st6" d="M44.6,27.8C44.6,27.8,44.6,27.8,44.6,27.8C44.6,27.8,44.6,27.8,44.6,27.8z"/>
					<path class="st6" d="M44,27.7L44,27.7C43.9,27.7,43.9,27.7,44,27.7z"/>
					<path class="st6" d="M44.8,27.5C44.8,27.5,44.8,27.5,44.8,27.5C44.8,27.5,44.8,27.5,44.8,27.5z"/>
					<path class="st6" d="M44.8,27.5C44.8,27.5,44.8,27.5,44.8,27.5C44.8,27.5,44.8,27.5,44.8,27.5z"/>
					<path class="st6" d="M44.7,27.5C44.8,27.5,44.8,27.5,44.7,27.5C44.8,27.5,44.8,27.5,44.7,27.5C44.8,27.5,44.8,27.5,44.7,27.5z"
						/>
					<path class="st6" d="M40.3,27.2C40.3,27.2,40.3,27.2,40.3,27.2C40.3,27.2,40.3,27.2,40.3,27.2z"/>
					<path class="st6" d="M43,27.7C43,27.7,43,27.7,43,27.7L43,27.7L43,27.7z"/>
					<path class="st6" d="M42.9,27.7C43,27.6,43,27.7,42.9,27.7l0.1-0.3L42.9,27.7z"/>
					<path class="st6" d="M41.4,27.5L41.4,27.5c0,0.2,0,0.2,0,0.3c0-0.3,0.1,0,0.1-0.3l0,0.1c0,0,0,0,0,0c0,0.1,0-0.2,0.1-0.2
						c0,0,0,0.1,0,0.1l0-0.1c0,0,0,0.1,0,0l0.1,0l0,0c0,0,0-0.1,0.1-0.1c0,0,0,0,0,0.1l0-0.1c0,0.1,0,0.1-0.1,0.1
						c0,0.3,0-0.1,0.1,0.1l0,0c0,0.2,0,0.1,0,0.2c0-0.1,0-0.3,0-0.3c0,0,0,0,0,0c0,0.1,0,0.1,0,0.1l0,0.1c0,0,0-0.1,0.1-0.2
						c0,0,0,0.1,0,0.2c0,0,0-0.2,0.1-0.2c0,0.1,0.1,0,0.1-0.1c0,0.1,0,0.1,0,0.1l0-0.1c0,0,0,0,0,0.1c0,0,0-0.1,0.1-0.2
						c0-0.1,0,0.2,0.1,0.1c0,0,0,0.1,0,0.1c0.1-0.1,0.1-0.1,0.1-0.2l0,0.1c0-0.1,0.1-0.2,0.1-0.3c0-0.1,0-0.1,0-0.1l0.1-0.1
						c0,0,0,0.1,0,0.1c0,0,0,0,0,0c0,0.1,0,0.1-0.1,0.2c0,0,0-0.1,0-0.1c0,0.1-0.1,0.2-0.1,0.2c0,0,0,0,0,0c0,0,0,0,0,0.1
						c0,0,0,0,0,0l0,0.1l0-0.1l0,0.1c0.1-0.1,0.2-0.3,0.3-0.4c0,0.1-0.1,0.2-0.1,0.3c0-0.1-0.1,0-0.1,0c0,0,0,0.1,0,0.1l0.1-0.1
						c0,0.1,0,0.1,0,0.1c0-0.2,0.1-0.1,0.1-0.2c0,0.1,0,0.1-0.1,0.1c0,0.2,0.1-0.2,0.1-0.1c0,0,0,0,0,0c0-0.1,0.1,0,0,0.1h0
						c0,0,0.1,0,0.2-0.1c0,0-0.1,0.2-0.1,0.2c0.1-0.2,0.2-0.4,0.3-0.5c-0.1,0.1-0.1,0.5-0.2,0.6c0,0,0,0.1,0.1,0
						c0,0,0.1-0.2,0.1-0.2c0,0.2,0,0.1,0,0.2c0,0,0.1-0.3,0.1-0.2c0,0-0.1,0.2-0.1,0.2l0.1-0.2c0,0-0.1,0.2-0.1,0.3c0,0,0,0,0.1,0
						v-0.1c0,0.1,0.2-0.3,0.2-0.3c0,0-0.1,0.3-0.1,0.3c0.1-0.1,0.3-0.5,0.4-0.6l0,0.1l0.1-0.1c-0.1,0.2-0.3,0.5-0.4,0.6
						c0,0.1,0,0.1,0,0.1c0,0.1-0.1,0.1-0.1,0.1l0,0.1c0.1-0.1,0.1-0.1,0.1-0.2l-0.1,0.1c0.1-0.1,0.2-0.3,0.2-0.3
						c0,0.1-0.1,0.2-0.1,0.3c0,0,0.1-0.1,0.1,0l-0.1,0.1c0,0.1,0.1-0.2,0.1,0c0,0,0,0.2,0,0.1c0.1-0.2,0.3-0.6,0.3-0.7
						c0,0,0,0.2,0,0.2c0,0.1-0.2,0.3-0.2,0.4c0,0,0-0.1,0.1-0.1c0,0-0.1,0.1,0,0.1c0.1-0.1,0,0,0.1-0.1c0,0,0,0,0,0
						c0-0.1,0.2-0.3,0.2-0.3c0,0,0,0.1,0,0.1c0,0,0,0.1,0.1,0.1c0,0,0,0.1-0.1,0.1c0,0,0-0.1,0.1-0.1c0,0.1,0,0-0.1,0.1
						c0-0.1,0.1-0.1,0.1-0.1c0.1-0.1,0,0-0.1,0c0.1-0.2,0.2-0.3,0.3-0.3c0.1,0,0,0.1,0,0.1c0.1,0.1,0.2-0.2,0.2-0.1
						c0,0.1-0.1,0.2-0.2,0.3c-0.1,0,0-0.1,0-0.1l0,0.1c0,0-0.1,0-0.1,0c0,0.1,0.1,0.1,0.1,0.2c0,0,0.1,0,0.1-0.1l0,0
						c0-0.1,0.1-0.1,0.1-0.1c0.1,0,0.1-0.1,0.1,0l-0.1,0.1c0,0,0-0.1,0-0.1c0,0-0.1,0.2,0.1,0.1l0-0.1c0.1,0,0.2-0.1,0.2-0.1
						c0.1-0.1,0,0,0.1-0.1c-0.1,0.2-0.1-0.1-0.2,0.1c0.1-0.2,0-0.1,0.1-0.2c0,0,0,0.1-0.1,0c0,0,0,0,0,0v0l0,0c0,0,0,0,0,0
						c0,0,0,0,0,0.1c-0.1,0.1-0.1,0-0.1,0.1c0,0,0,0,0.1-0.1l-0.1,0c0.1-0.1,0-0.2,0.1-0.2l0,0c0-0.1,0-0.1,0-0.1c0,0-0.1,0.1,0,0
						c0,0-0.1,0-0.1,0l0,0c0,0-0.2,0.1-0.2-0.1c0,0-0.1,0-0.1,0l0-0.1c0,0,0-0.1-0.1,0c0.1-0.2-0.1-0.1-0.1-0.2l0,0.1
						c0,0-0.1,0-0.1,0l0,0.1c-0.1,0.1-0.1-0.1-0.1-0.1c0,0,0,0,0,0c0-0.2-0.2,0.1-0.2-0.1c0,0,0,0,0,0c0,0,0,0,0,0c0,0,0,0,0,0
						c0,0,0,0,0-0.1c0,0,0,0,0,0.1c0,0,0,0-0.1,0l0-0.1c0,0,0,0,0,0c0,0,0,0,0,0.1c0,0,0,0,0,0.1c0-0.2-0.1,0,0-0.1
						c0,0.1-0.1,0-0.2,0.2c0,0,0,0,0,0c0,0,0-0.1-0.1,0l0-0.1l-0.1,0.2c0-0.1,0-0.1,0.1-0.2c-0.1,0.1-0.1,0-0.2,0.2l0-0.1
						c0,0-0.1,0.1-0.1,0c0-0.2-0.2-0.1-0.2-0.2c0,0.2,0-0.1-0.1,0.1c0-0.1,0-0.1,0-0.1c-0.1,0-0.1-0.1-0.1,0c0-0.1,0-0.1,0-0.1
						c0,0,0,0,0,0c0,0,0,0,0-0.1c-0.1,0-0.1,0.2-0.1,0.3c0-0.1,0-0.1-0.1,0c0-0.1,0-0.1,0-0.1c0,0-0.1-0.1-0.1,0c0,0,0,0,0,0
						c0,0,0,0-0.1,0l0,0c0,0.2,0,0-0.1,0l0,0c0-0.1,0,0.1-0.1-0.1l0,0.1c0,0.2,0-0.1-0.1-0.1l0,0.1c0,0.1,0-0.3,0-0.3c0,0,0,0,0,0
						c0-0.1,0,0.1-0.1,0.2c0-0.1,0-0.2,0-0.2c0-0.1-0.1,0.2-0.1,0.1c0,0.1,0,0.1,0,0.1c0,0-0.1-0.2-0.1,0c0,0,0,0,0,0
						c0,0-0.1,0.1-0.1,0.2c0-0.3-0.2,0.2-0.1-0.2l-0.1,0l0,0c0,0-0.1,0.1-0.1,0.1c0,0,0-0.1,0-0.1c-0.1-0.1-0.1-0.1-0.1,0.1v-0.1
						c0,0.1-0.1-0.2-0.2-0.1c0,0,0,0,0,0c-0.1,0.1-0.2-0.3-0.2,0.1l-0.1,0.1c0.1,0,0,0.2,0,0.2c0,0-0.1-0.1,0-0.1l0,0
						c0-0.2-0.1-0.1-0.1-0.2c-0.1,0-0.3-0.1-0.4-0.1l0,0.2l0,0c0,0,0-0.1,0-0.1c0-0.1,0,0.1,0,0.1c-0.1-0.1,0-0.2,0-0.2l0,0l0,0
						c0,0.1,0,0.1-0.1,0.1c0,0,0-0.1,0-0.1c0,0,0,0,0,0l-0.1,0l0,0.1c0,0.1,0,0,0,0.1c0-0.2-0.2-0.1-0.2-0.1c0,0.1-0.1,0.1-0.1,0.1
						c0,0,0,0.2,0,0.1c0-0.3-0.1-0.1-0.1-0.3c0,0.1-0.1,0,0,0.2c0,0,0-0.1,0-0.2c-0.1,0.1-0.2-0.1-0.2,0c0,0,0,0.1,0,0.1l-0.1-0.2
						c0,0,0,0.2,0,0.1c0,0,0,0.1,0,0.1c-0.2-0.2-0.3,0.2-0.5-0.1c0,0.1,0,0.1,0,0.1c0,0,0,0.1,0,0.1l-0.1-0.1c0,0.1-0.1,0-0.1,0.2
						l0,0c0,0.2,0.1,0.3,0.1,0.5c0-0.2,0.1,0.2,0.1,0c0,0,0,0.1,0,0.1c0-0.1,0-0.1,0-0.1v0c0.1,0,0.1,0,0.2,0.1l0-0.1c0,0,0,0,0,0.1
						c0-0.2-0.1,0-0.1-0.2c0.1,0.2,0.1,0,0.2,0.2c0,0,0-0.1,0-0.1l0,0.1l0-0.1c0,0,0,0.1,0,0.1c0,0,0,0,0,0c0,0.1,0.1,0,0.1,0l0,0
						c0.1-0.1,0.2,0,0.2-0.1l0,0c0.1-0.1,0.1,0,0.1,0l0,0c0,0,0-0.1,0-0.1c0,0.1,0,0.1,0,0.2c0.1-0.1,0-0.1,0.1-0.3l0,0.1
						c0-0.1,0-0.1,0-0.1c0,0.1,0,0.1,0,0.2c0.1,0.2,0.1-0.2,0.1,0.1c0-0.2-0.1-0.1-0.1-0.2c0-0.1,0-0.2,0-0.1c0,0,0.1,0.3,0.1,0.3
						c0,0,0,0,0,0c0,0.1,0-0.1,0.1,0c0-0.1,0,0,0-0.2l-0.1,0c0,0,0.1-0.2,0.1-0.1c0,0,0,0.1,0,0.1c0,0,0,0,0,0c0,0.2-0.1,0-0.1,0.2
						c0,0.1,0.1-0.1,0,0.1c0-0.2,0.1,0,0.1-0.1v0.1c0,0,0-0.1,0-0.1l0,0.1c0-0.1,0.1,0.1,0.1,0c-0.1,0,0-0.1,0-0.2
						c0.1-0.1,0,0.3,0.1,0.2c0,0,0-0.1,0-0.1c0,0,0,0.1,0,0.1c0.1,0,0-0.1,0-0.2c0,0.1,0,0,0.1-0.1v0.1c0.1,0.1,0-0.2,0.1-0.1l0,0.1
						l0,0l0,0.1c0-0.1,0-0.1,0.1,0c0-0.1,0-0.2,0-0.2c0,0.1,0,0.1,0,0.1c0,0.1,0,0.1,0,0c0,0,0,0.1,0,0.1c0,0.1,0.1,0,0.1,0
						c0,0,0,0,0,0l0.1-0.1c0,0,0,0.1,0,0.1c0,0,0-0.1,0-0.1c0,0.1,0,0.2,0,0.2l0.1-0.1c0,0,0,0.1,0,0.1c0,0.1,0.1-0.2,0.1-0.1
						c0,0,0,0,0,0c0,0,0.1,0.1,0.1,0l0,0.1C41.3,27.6,41.2,27.4,41.4,27.5C41.4,27.3,41.3,27.5,41.4,27.5
						C41.4,27.5,41.4,27.3,41.4,27.5C41.4,27.5,41.4,27.5,41.4,27.5z M41.8,27.5C41.8,27.5,41.8,27.5,41.8,27.5
						C41.8,27.4,41.8,27.4,41.8,27.5z M42.5,27.3C42.5,27.4,42.5,27.4,42.5,27.3C42.5,27.3,42.5,27.3,42.5,27.3z M44.6,27.5
						L44.6,27.5C44.6,27.4,44.6,27.4,44.6,27.5z M44.6,27.5C44.6,27.5,44.6,27.5,44.6,27.5C44.6,27.5,44.6,27.5,44.6,27.5
						C44.6,27.5,44.6,27.5,44.6,27.5z M40.2,26.5L40.2,26.5C40.2,26.6,40.2,26.5,40.2,26.5z"/>
					<path class="st6" d="M42.4,27.5C42.4,27.4,42.4,27.4,42.4,27.5C42.4,27.4,42.4,27.4,42.4,27.5z"/>
					<polygon class="st6" points="41.1,27.5 41.1,27.5 41.1,27.5 					"/>
					<path class="st6" d="M43.6,27.9C43.6,27.9,43.6,27.9,43.6,27.9C43.6,27.9,43.6,27.9,43.6,27.9z"/>
					<path class="st6" d="M44.9,27.5L44.9,27.5C44.9,27.5,44.9,27.5,44.9,27.5C44.9,27.5,44.9,27.5,44.9,27.5z"/>
					<path class="st6" d="M44.7,28.2C44.7,28.2,44.7,28.2,44.7,28.2L44.7,28.2C44.7,28.1,44.7,28.1,44.7,28.2z"/>
					<path class="st6" d="M44.7,27.8C44.7,27.9,44.7,27.9,44.7,27.8C44.7,27.9,44.7,27.9,44.7,27.8C44.8,27.8,44.8,27.8,44.7,27.8z"
						/>
					<path class="st6" d="M44.7,27.9C44.7,27.9,44.7,27.9,44.7,27.9C44.8,27.8,44.8,27.9,44.7,27.9z"/>
					<path class="st6" d="M44.7,27.5C44.7,27.5,44.8,27.4,44.7,27.5C44.8,27.4,44.6,27.5,44.7,27.5z"/>
					<polygon class="st6" points="44.6,28 44.6,28 44.6,28 					"/>
					<path class="st6" d="M44.5,27.9L44.5,27.9C44.5,27.9,44.5,27.9,44.5,27.9C44.5,27.9,44.5,27.9,44.5,27.9z"/>
					<path class="st6" d="M44.5,27.9C44.5,27.9,44.5,27.9,44.5,27.9C44.6,27.9,44.5,27.9,44.5,27.9z"/>
					<polygon class="st6" points="44.5,28 44.5,28 44.5,28 					"/>
					<path class="st6" d="M44.2,27.7L44.2,27.7C44.2,27.7,44.2,27.8,44.2,27.7C44.2,27.7,44.2,27.7,44.2,27.7z"/>
					<path class="st6" d="M44.2,28C44.2,28,44.2,27.9,44.2,28L44.2,28L44.2,28z"/>
					<path class="st6" d="M44.1,28C44.1,28,44,28,44.1,28C44,28,44.1,28,44.1,28z"/>
					<polygon class="st6" points="43.7,27.6 43.8,27.6 43.8,27.4 					"/>
					<path class="st6" d="M43.2,27.9C43.2,28,43.2,27.8,43.2,27.9c0.1-0.1,0.1-0.1,0.1-0.1C43.2,27.8,43.2,27.8,43.2,27.9z"/>
					<path class="st6" d="M43.3,27.8C43.3,27.8,43.3,27.7,43.3,27.8C43.3,27.7,43.3,27.8,43.3,27.8z"/>
					<polygon class="st6" points="38.6,26.6 38.6,26.5 38.6,26.6 					"/>
					<path class="st6" d="M38.6,26.7l0-0.1L38.6,26.7C38.6,26.7,38.6,26.7,38.6,26.7z"/>
					<path class="st6" d="M41.8,27.7L41.8,27.7C41.9,27.7,41.9,27.7,41.8,27.7L41.8,27.7z"/>
					<polygon class="st6" points="41.6,27.6 41.6,27.6 41.6,27.5 					"/>
					<path class="st6" d="M41.3,27.7C41.3,27.7,41.3,27.7,41.3,27.7C41.3,27.7,41.3,27.6,41.3,27.7z"/>
				</g>
			</g>
		</g>
	</g>
</g>
<g id="XMLID_12_">
	<path id="XMLID_28_" class="st7" d="M37.5,27.8c0,0,0,0,0.1-0.1c0.1-0.1,0.2-0.2,0.3-0.3c0.1-0.1,0.3-0.2,0.5-0.3
		c0.1-0.1,0.2-0.1,0.3-0.2c0.1-0.1,0.2-0.1,0.3-0.2c0.2-0.1,0.4-0.2,0.7-0.2c0.1,0,0.2-0.1,0.3-0.1c0.1,0,0.2,0,0.3,0
		c0.1,0,0.2,0,0.3,0s0.1,0,0.2,0c0.1,0,0.1,0.1,0.2,0.1l0,0c0,0-0.1,0-0.2,0c-0.1,0-0.2,0-0.4,0c-0.3,0.1-0.8,0.2-1.2,0.4
		C38.2,27.3,37.5,27.8,37.5,27.8L37.5,27.8z"/>
</g>
<g id="XMLID_14_">
	<path id="XMLID_25_" class="st7" d="M40.5,27.5c0,0,0.1-0.1,0.3-0.3c0.1-0.1,0.2-0.2,0.4-0.2c0.1-0.1,0.3-0.2,0.4-0.2
		c0.2-0.1,0.3-0.1,0.5-0.2c0.2,0,0.3-0.1,0.4-0.1c0.1,0,0.1,0,0.2,0c0.1,0,0.1,0,0.1,0c0.1,0,0.1,0,0.1,0l0,0c0,0,0,0-0.1,0
		c0,0-0.1,0-0.1,0c-0.1,0-0.1,0-0.2,0c-0.1,0-0.3,0.1-0.4,0.1s-0.3,0.1-0.5,0.2C41.1,27.2,40.5,27.5,40.5,27.5L40.5,27.5z"/>
</g>
<g id="XMLID_15_">
	<path id="XMLID_22_" class="st8" d="M42.9,27.9c0,0,0.1-0.1,0.3-0.2c0.1-0.1,0.2-0.1,0.3-0.2c0.1-0.1,0.3-0.1,0.4-0.1
		c0.1,0,0.2,0,0.2,0c0.1,0,0.2,0,0.2,0c0.1,0,0.1,0,0.2,0c0.1,0,0.1,0,0.2,0.1c0.1,0,0.1,0.1,0.1,0.1c0,0,0.1,0.1,0.1,0.1
		c0.1,0,0.1,0.1,0.1,0.1s0,0-0.1,0c0,0-0.1,0-0.1,0c0,0-0.1,0-0.1,0c-0.1,0-0.1,0-0.2,0c-0.1,0-0.1,0-0.2,0c-0.1,0-0.1,0-0.2,0
		c-0.1,0-0.1,0-0.2,0c-0.1,0-0.1,0-0.2,0c-0.1,0-0.1,0-0.2,0c-0.1,0-0.2,0.1-0.3,0.1C43.1,27.9,42.9,27.9,42.9,27.9z"/>
</g>
<path id="XMLID_10_" class="st5" d="M17.8,30.9c0,0,3.8-5.6,10.3-2.9c0,0-0.5-2.4-5.8-2.1C20.6,26,17.8,27.1,17.8,30.9z"/>
<g id="XMLID_18_">
	<g>
		<g>
			<g>
				<path class="st6" d="M26.7,27.4C26.7,27.4,26.7,27.4,26.7,27.4C26.7,27.4,26.7,27.4,26.7,27.4z"/>
				<path class="st6" d="M26.5,27.3L26.5,27.3C26.5,27.3,26.5,27.3,26.5,27.3L26.5,27.3z"/>
				<path class="st6" d="M26.4,27.1C26.3,27.2,26.4,27.2,26.4,27.1L26.4,27.1l0.1,0.1C26.4,27.2,26.4,27.2,26.4,27.1z"/>
				<path class="st6" d="M26.3,26.9C26.3,26.9,26.3,26.9,26.3,26.9C26.3,26.9,26.3,26.9,26.3,26.9C26.3,26.9,26.3,26.9,26.3,26.9z"
					/>
				<path class="st6" d="M26.3,26.9C26.3,26.9,26.3,26.9,26.3,26.9L26.3,26.9z"/>
				<path class="st6" d="M26.2,26.8L26.2,26.8C26.3,26.8,26.3,26.8,26.2,26.8C26.2,26.8,26.2,26.8,26.2,26.8z"/>
				<path class="st6" d="M26.2,26.9L26.2,26.9C26.2,26.9,26.2,26.9,26.2,26.9z"/>
				<path class="st6" d="M26.2,26.9L26.2,26.9C26.2,26.9,26.2,26.9,26.2,26.9C26.2,26.9,26.2,26.9,26.2,26.9z"/>
				<path class="st6" d="M26.3,26.9C26.3,26.9,26.3,27,26.3,26.9C26.3,27,26.3,26.9,26.3,26.9z"/>
				<path class="st6" d="M26.3,27.2L26.3,27.2L26.3,27.2C26.3,27.2,26.3,27.2,26.3,27.2z"/>
				<path class="st6" d="M26.1,26.6C26.1,26.7,26.1,26.7,26.1,26.6L26.1,26.6C26.1,26.7,26.1,26.7,26.1,26.6z"/>
				<path class="st6" d="M26.1,26.7L26.1,26.7C26.1,26.8,26.1,26.8,26.1,26.7z"/>
				<path class="st6" d="M26.2,27C26.2,27,26.2,27,26.2,27C26.2,27,26.2,27,26.2,27L26.2,27z"/>
				<polygon class="st6" points="26,26.5 26,26.5 26,26.6 				"/>
				<path class="st6" d="M25.9,26.5c0,0,0-0.1,0-0.1C25.9,26.3,25.9,26.4,25.9,26.5C25.9,26.4,25.9,26.4,25.9,26.5z"/>
				<path class="st6" d="M25.8,26.4C25.8,26.4,25.8,26.4,25.8,26.4C25.9,26.4,25.8,26.4,25.8,26.4z"/>
				<path class="st6" d="M26,26.7C26,26.7,26,26.6,26,26.7L26,26.7L26,26.7z"/>
				<path class="st6" d="M26,26.7L26,26.7C26,26.7,26,26.7,26,26.7C26,26.7,26,26.7,26,26.7z"/>
				<path class="st6" d="M26,26.7L26,26.7C26,26.7,26,26.7,26,26.7z"/>
				<path class="st6" d="M26.1,26.9c0,0-0.1,0-0.1,0.1C26.1,27,26,26.9,26.1,26.9z"/>
				<path class="st6" d="M26,26.8L26,26.8C26,26.8,26,26.8,26,26.8L26,26.8z"/>
				<polygon class="st6" points="26,26.8 26,26.8 26,26.8 				"/>
				<path class="st6" d="M25.9,26.6C25.8,26.6,25.8,26.6,25.9,26.6C25.8,26.6,25.8,26.6,25.9,26.6C25.9,26.6,25.9,26.6,25.9,26.6z"
					/>
				<path class="st6" d="M25.9,26.6L25.9,26.6C25.9,26.6,25.9,26.6,25.9,26.6z"/>
				<path class="st6" d="M25.6,26.5C25.6,26.5,25.6,26.5,25.6,26.5L25.6,26.5L25.6,26.5z"/>
				<path class="st6" d="M25.8,26.7C25.8,26.7,25.9,26.7,25.8,26.7C25.9,26.6,25.9,26.6,25.8,26.7C25.8,26.6,25.8,26.7,25.8,26.7z"
					/>
				<path class="st6" d="M25.8,26.4C25.8,26.5,25.8,26.5,25.8,26.4C25.8,26.5,25.8,26.4,25.8,26.4z"/>
				<path class="st6" d="M25.9,26.6L25.9,26.6C25.9,26.6,25.9,26.6,25.9,26.6z"/>
				<path class="st6" d="M25.9,26.6C25.9,26.6,25.9,26.6,25.9,26.6C25.9,26.6,25.9,26.6,25.9,26.6C25.9,26.6,25.9,26.6,25.9,26.6z"
					/>
				<path class="st6" d="M25.4,27C25.4,27,25.5,26.9,25.4,27c0.1-0.1,0.2-0.4,0.2-0.5c0,0,0,0.1-0.1,0.1c0,0,0.1,0.1,0,0.2
					c-0.1,0,0,0,0-0.1C25.5,26.8,25.4,26.9,25.4,27L25.4,27C25.4,27,25.4,27,25.4,27z"/>
				<path class="st6" d="M25.7,26.5L25.7,26.5c0,0,0-0.1,0-0.1C25.6,26.4,25.6,26.5,25.7,26.5C25.6,26.5,25.7,26.5,25.7,26.5
					L25.7,26.5z"/>
				<path class="st6" d="M25.8,26.6c0,0.1-0.1,0.1-0.1,0.2c0,0,0-0.1,0.1-0.1C25.7,26.7,25.8,26.6,25.8,26.6
					C25.8,26.6,25.8,26.6,25.8,26.6C25.8,26.5,25.8,26.5,25.8,26.6L25.8,26.6L25.8,26.6L25.8,26.6C25.8,26.5,25.8,26.5,25.8,26.6
					L25.8,26.6C25.8,26.5,25.8,26.5,25.8,26.6C25.7,26.5,25.8,26.5,25.8,26.6L25.8,26.6L25.8,26.6C25.7,26.5,25.7,26.5,25.8,26.6
					C25.7,26.5,25.7,26.5,25.8,26.6z"/>
				<path class="st6" d="M26,27.1C26,27.1,26,27.1,26,27.1C26,27.1,25.9,27.1,26,27.1z"/>
				<path class="st6" d="M25.9,27.1C26,27,26,27,25.9,27.1C26,27.1,26,27.1,25.9,27.1C26,27.1,26,27.1,25.9,27.1L25.9,27.1
					c0-0.1,0-0.2,0-0.2C26,26.9,25.9,27,25.9,27.1z"/>
				<path class="st6" d="M25.8,26.8L25.8,26.8L25.8,26.8L25.8,26.8C25.8,26.9,25.8,26.9,25.8,26.8z"/>
				<polygon class="st6" points="25.6,26.5 25.7,26.4 25.6,26.5 				"/>
				<polygon class="st6" points="25.5,26.4 25.6,26.4 25.5,26.4 				"/>
				<path class="st6" d="M21.5,27.5L21.5,27.5C21.5,27.6,21.5,27.5,21.5,27.5z"/>
				<path class="st6" d="M21.6,27.5L21.6,27.5C21.6,27.5,21.6,27.5,21.6,27.5z"/>
				<path class="st6" d="M23.6,26.2c0-0.1-0.1-0.2-0.1-0.1L23.6,26.2C23.6,26.1,23.6,26.2,23.6,26.2z"/>
				<path class="st6" d="M22.4,26.8C22.4,26.8,22.4,26.8,22.4,26.8C22.4,26.8,22.4,26.8,22.4,26.8C22.4,26.8,22.4,26.8,22.4,26.8z"
					/>
				<path class="st6" d="M22.4,27.2L22.4,27.2C22.4,27.1,22.4,27.2,22.4,27.2z"/>
				<path class="st6" d="M21,27.9L21,27.9C21,27.9,21,27.9,21,27.9z"/>
				<path class="st6" d="M24.7,26.3C24.7,26.3,24.7,26.3,24.7,26.3C24.7,26.3,24.7,26.4,24.7,26.3z"/>
				<path class="st6" d="M21.2,26.6C21.2,26.6,21.2,26.7,21.2,26.6C21.2,26.7,21.2,26.6,21.2,26.6z"/>
				<path class="st6" d="M24.6,26.2C24.6,26.2,24.6,26.3,24.6,26.2C24.7,26.2,24.7,26.2,24.6,26.2C24.7,26.2,24.7,26.2,24.6,26.2z"
					/>
				<path class="st6" d="M19.2,29.1C19.2,29.1,19.2,29.1,19.2,29.1C19.2,29.1,19.2,29.1,19.2,29.1z"/>
				<path class="st6" d="M18.4,29.3C18.4,29.3,18.4,29.3,18.4,29.3C18.4,29.3,18.4,29.3,18.4,29.3z"/>
				<path class="st6" d="M25.2,26.3C25.3,26.3,25.2,26.3,25.2,26.3L25.2,26.3z"/>
				<path class="st6" d="M25.2,26.7C25.2,26.7,25.2,26.7,25.2,26.7C25.2,26.7,25.2,26.7,25.2,26.7z"/>
				<path class="st6" d="M24.4,26.8L24.4,26.8C24.4,26.8,24.4,26.8,24.4,26.8z"/>
				<path class="st6" d="M25.3,26.4C25.3,26.4,25.2,26.4,25.3,26.4C25.2,26.4,25.2,26.4,25.3,26.4z"/>
				<path class="st6" d="M25.3,26.3C25.3,26.3,25.3,26.3,25.3,26.3C25.3,26.3,25.3,26.3,25.3,26.3z"/>
				<path class="st6" d="M25.2,26.3C25.2,26.3,25.2,26.3,25.2,26.3C25.2,26.3,25.2,26.3,25.2,26.3C25.2,26.3,25.2,26.3,25.2,26.3z"
					/>
				<path class="st6" d="M19.9,28.2C19.9,28.2,19.9,28.2,19.9,28.2C19.9,28.2,19.9,28.2,19.9,28.2z"/>
				<path class="st6" d="M23.2,27.1C23.2,27.1,23.2,27.1,23.2,27.1L23.2,27.1L23.2,27.1z"/>
				<path class="st6" d="M23.2,27.2C23.2,27.1,23.2,27.1,23.2,27.2l0-0.3L23.2,27.2z"/>
				<path class="st6" d="M21.2,27.7L21.2,27.7c0.1,0.2,0,0.2,0.1,0.3c-0.1-0.3,0.1-0.1,0-0.3l0,0c0,0,0,0,0,0c0.1,0.1,0-0.2,0-0.2
					c0,0,0.1,0,0.1,0.1l0-0.1c0,0,0,0,0,0l0.1,0l0,0c0,0,0-0.1,0-0.2c0,0,0,0,0,0.1l0-0.1c0,0.1,0,0.1,0,0.1c0.1,0.3,0-0.1,0.1,0.1
					l0,0c0.1,0.1,0.1,0.1,0.1,0.2c0,0-0.2-0.2-0.1-0.3c0,0,0,0,0,0c0,0.1,0,0.1,0.1,0.1l0,0.1c0,0,0-0.1,0-0.2c0,0,0.1,0.1,0.1,0.2
					c0.1,0-0.1-0.2,0-0.2c0.1,0,0.1,0,0.1-0.1c0,0,0,0.1,0,0.1l0-0.1c0,0,0,0,0,0.1c0,0,0-0.1,0-0.2c0-0.1,0.1,0.2,0.1,0
					c0,0,0,0.1,0,0.1c0-0.1,0-0.1,0.1-0.2l0.1,0.1c-0.1-0.1,0-0.2,0-0.3c0,0,0-0.1-0.1-0.1l0.1-0.1c0,0,0,0.1,0,0.1c0,0,0,0,0,0
					c0,0,0,0.1,0,0.2c0,0,0-0.1,0-0.1c0,0.1,0,0.2,0,0.3c0,0,0,0,0,0c0,0,0,0,0,0.1c0,0,0,0,0-0.1l0,0.1l0-0.1l0.1,0.1
					c0-0.2,0.1-0.4,0.1-0.5c0,0.1,0,0.2,0,0.3c0-0.1-0.1,0.1-0.1,0c0,0,0,0.1,0,0.1l0.1-0.1c0,0.1,0,0.1,0.1,0.1
					c0-0.2,0-0.1,0.1-0.2c0,0.1,0,0.1,0,0.1c0.1,0.2,0-0.3,0.1-0.1c0,0,0,0,0,0c0-0.1,0.1,0,0.1,0l0,0c0.1,0,0.2,0,0.2-0.2
					c0,0,0,0.2,0,0.3c0-0.2,0.1-0.4,0.1-0.6c0,0.2,0,0.5,0,0.6c0,0,0,0,0.1,0c0,0,0-0.2,0-0.2c0,0.2,0,0.1,0.1,0.2c0,0,0-0.3,0-0.3
					c0,0,0,0.2,0,0.3l0.1-0.2c0,0,0,0.2,0,0.3c0,0,0.1,0,0.1,0l0-0.1c0.1,0,0.1-0.3,0.2-0.3c0,0,0,0.3,0,0.3c0-0.1,0.1-0.6,0.2-0.7
					l0,0.1l0.1-0.1c0,0.2-0.2,0.6-0.2,0.7c0,0.1,0,0.1,0,0.1c0,0.1,0,0.1,0,0.1c0,0,0.1,0,0.1,0c0-0.1,0.1-0.1,0.1-0.3l-0.1,0.1
					c0-0.1,0.1-0.4,0.1-0.4c0,0.1,0,0.2,0,0.3c0,0,0.1-0.1,0.1-0.1l0,0.1c0,0.1,0.1-0.2,0.1,0c0,0,0,0.2,0,0.1c0-0.2,0-0.7,0.1-0.8
					c0,0,0.1,0.2,0.1,0.2c0,0.1-0.1,0.3-0.1,0.4c0,0,0-0.1,0-0.1c0,0,0,0.1,0,0.1c0-0.1,0.1,0,0-0.1c0,0,0,0,0.1,0
					c0-0.1,0.1-0.3,0.1-0.3c0,0,0,0.1,0,0.1c0.1,0,0.1,0.1,0.2,0.1c0,0,0,0.1,0,0.1c0,0,0-0.1,0.1-0.1c0,0.1,0,0,0,0.2
					c0-0.1,0.1-0.1,0.1-0.2c0-0.1-0.1,0-0.1,0c0-0.2,0.1-0.4,0.2-0.4c0.1,0,0,0.1,0,0.1c0.1,0.1,0.2-0.3,0.2-0.1
					c0,0.1,0,0.2-0.1,0.3c-0.1,0-0.1-0.1-0.1-0.1l0,0.1c0,0-0.1,0.1-0.1,0c0,0.1,0.2,0.1,0.2,0.2c0,0,0.1-0.1,0.1-0.1l0,0
					c0-0.1,0.1-0.1,0.1-0.2c0-0.1,0.1-0.1,0.1-0.1l0,0.1c0,0,0-0.1,0,0c0-0.1,0,0.2,0.1,0l0-0.1c0.1-0.1,0.1-0.2,0.2-0.1
					c0-0.1,0,0,0-0.1c0,0.2-0.1,0-0.1,0.2c0-0.2,0-0.1,0-0.2c0,0,0,0.1,0,0.1c0,0,0,0,0,0l0,0v0c0,0,0,0,0,0c0,0,0,0,0,0.1
					c0,0.1-0.1,0.1-0.1,0.1c0,0,0,0,0-0.1l0,0.1c0-0.1,0-0.2,0-0.2l0,0c0-0.1-0.1-0.1-0.1-0.1c0,0-0.1,0.1,0,0l-0.1,0l0,0
					c-0.1,0-0.2,0.1-0.2-0.1c0,0-0.1,0-0.1,0l0-0.1c0,0-0.1-0.1-0.1,0c0-0.2-0.2-0.1-0.2-0.1l0,0.1c0,0-0.1,0-0.1,0.1l0,0.1
					c0,0.1-0.1-0.1-0.2-0.1c0,0,0,0,0,0c-0.1-0.2-0.2,0.1-0.2,0c0,0,0,0,0,0c0,0,0,0,0,0c0,0,0,0,0,0c0,0,0,0,0-0.1c0,0,0,0,0,0.1
					c0,0,0,0-0.1,0l0-0.1c0,0,0,0,0,0c0,0,0,0,0,0.1c0,0,0,0,0,0.1c0-0.2-0.1,0.1-0.1-0.1c0,0.1-0.1,0.1-0.1,0.2c0,0,0,0,0,0
					c0,0,0,0-0.1,0l0-0.1l0,0.2c0-0.1,0-0.1,0-0.2c-0.1,0.2-0.1,0.1-0.1,0.2l0-0.1c0,0-0.1,0.1-0.1,0c-0.1-0.2-0.2,0-0.4-0.1
					c0.1,0.2-0.1-0.1-0.1,0.1c0-0.1,0-0.1,0-0.1c-0.1,0.1-0.1-0.1-0.1,0.1c0-0.1,0-0.1,0-0.1c0,0,0,0.1,0,0c0,0,0-0.1,0-0.1
					c-0.1,0,0,0.2,0,0.4c0-0.1-0.1-0.1-0.1,0.1c0-0.1-0.1-0.1,0-0.1c0,0-0.2-0.1-0.1,0.1c0,0,0,0,0,0c-0.1,0-0.1,0-0.1,0l0,0
					c0,0.2,0,0-0.1,0.1l0,0c-0.1-0.1,0,0.1-0.1,0l0,0.1c0,0.2-0.1-0.1-0.1,0l0,0.1c0,0.1-0.2-0.3-0.2-0.3c0,0,0,0,0,0
					c-0.1-0.1,0,0.1,0,0.2c0-0.1,0-0.2-0.1-0.2c0,0,0,0.3-0.1,0.1c0,0,0.1,0.1,0,0.1c0,0-0.2-0.2-0.2,0c0,0,0,0,0,0
					c0,0.1-0.1,0.1-0.1,0.2c-0.2-0.3-0.1,0.2-0.2-0.1l-0.1,0.1l0,0c-0.1,0-0.1,0.1,0,0.2c0,0,0,0,0-0.1c-0.1,0-0.1,0-0.1,0.2
					L20.6,27c0,0.1-0.2-0.1-0.2,0.1c0,0,0,0,0,0c0,0.2-0.4-0.1-0.2,0.2l0,0.1c0.1,0,0.1,0.1,0.1,0.2c0,0-0.1-0.1-0.1-0.1l0,0
					c-0.1-0.2-0.1,0-0.2-0.1c-0.1,0.1-0.3,0.1-0.5,0.2l0.1,0.1l0,0c0,0-0.1-0.1-0.1-0.1c-0.1-0.1,0,0.1,0,0.1
					c-0.1,0-0.1-0.2-0.1-0.1l0,0l0,0c0,0.1,0.1,0.1,0,0.1c0,0-0.1-0.1-0.1-0.1c0,0,0,0,0,0l-0.1,0l0.1,0.1c0,0.1-0.1,0,0.1,0.1
					c-0.2-0.1-0.2,0.1-0.3,0.1c0,0.1,0,0.1,0,0.1c0,0,0.1,0.1,0.1,0.1c-0.2-0.2-0.1,0-0.3-0.1c0.1,0.1-0.1,0.1,0.1,0.2
					c0,0-0.1-0.1-0.1-0.1c0,0.1-0.2,0.1-0.2,0.3c0,0,0.1,0,0.1,0.1c-0.1,0-0.1,0-0.1,0c0,0,0.1,0.1,0,0.1c0,0,0.1,0,0.1,0
					c-0.1,0.1-0.1,0.2-0.2,0.3c0,0.1-0.1,0.2-0.1,0.3c0,0,0,0,0,0c0,0,0,0,0,0c0,0,0,0,0,0.1c0,0,0,0.1,0,0.1l0,0c0,0,0,0,0.1,0
					c0,0,0,0,0.1-0.1c0,0,0.1,0,0.1-0.1c0,0,0,0,0,0c0,0,0,0,0-0.1l0,0c0.1-0.1,0.1-0.1,0.3-0.1l-0.1,0c0,0,0,0,0.1,0
					c0-0.1-0.1,0-0.1,0c0.1,0.1,0.1-0.1,0.3,0c0,0-0.1,0,0-0.1l0,0l0,0c0,0,0.1,0,0.1,0.1c0,0,0,0,0,0c0.1,0,0.1-0.1,0.1,0l-0.1,0
					c0.1-0.1,0.3-0.1,0.2-0.3l0,0c0-0.1,0.1,0,0.1-0.1l0,0c0,0,0-0.1,0-0.1c0,0.1,0.1,0.1,0.1,0.1c0-0.1,0-0.1-0.1-0.2l0.1,0
					c0-0.1-0.1-0.1,0-0.1c0,0.1,0.1,0.1,0.1,0.2c0.2,0.1,0-0.2,0.2-0.1c-0.1-0.2-0.1,0-0.1-0.1c-0.1,0-0.1-0.1,0-0.1
					c0,0,0.2,0.2,0.3,0.1c0,0,0,0,0,0c0.1,0,0-0.1,0.1,0c-0.1-0.1,0,0-0.1-0.2l0,0.1c0-0.1-0.1-0.2,0-0.2c0,0,0,0.1,0,0.1
					c0,0,0,0,0.1,0c0.1,0.1,0,0.1,0,0.2c0.1,0,0-0.1,0.1,0c-0.1-0.2,0.1,0,0-0.2l0.1,0.1c0,0,0-0.1,0-0.1l0.1,0.1c0-0.1,0.1,0,0.1,0
					c-0.1,0-0.1-0.1-0.2-0.1c0-0.2,0.2,0.2,0.3,0.1c0,0-0.1,0-0.1-0.1c0,0,0.1,0,0.1,0.1c0-0.1-0.1-0.1-0.1-0.1c0.1,0.1,0-0.1,0-0.1
					l0.1,0.1c0.1,0-0.1-0.2,0-0.2l0.1,0.1l0-0.1l0.1,0.1c0-0.1,0-0.1,0.1-0.1c0-0.1-0.1-0.2-0.1-0.2c0.1,0,0,0.1,0.1,0.1
					c0,0.1,0.1,0.1,0,0.1c0,0,0,0.1,0,0.1c0.1,0,0.1,0,0.1,0c0,0,0,0,0,0l0-0.2c0,0,0,0.1,0,0.1c0,0,0-0.1,0-0.1
					c0,0.1,0.1,0.1,0.1,0.2l0-0.1c0,0,0.1,0.1,0.1,0.1c0.1,0,0-0.2,0.1-0.1c0,0,0,0,0,0c0.1,0,0.1,0.1,0.1-0.1l0.1,0.1
					c0,0-0.1-0.2-0.1-0.2c0-0.1,0.1,0.1,0.1,0.1C21.2,27.7,21.2,27.5,21.2,27.7C21.3,27.7,21.3,27.6,21.2,27.7z M21.7,27.4
					C21.7,27.4,21.7,27.5,21.7,27.4C21.7,27.3,21.7,27.4,21.7,27.4z M22.5,27C22.5,27,22.5,27,22.5,27C22.5,27,22.5,27,22.5,27z
					 M25,26.4C25,26.4,25,26.4,25,26.4C25,26.3,25,26.4,25,26.4z M25.1,26.4C25.1,26.4,25.1,26.4,25.1,26.4
					C25.1,26.4,25.1,26.4,25.1,26.4C25.1,26.4,25.1,26.4,25.1,26.4z M19.4,27.7L19.4,27.7C19.4,27.8,19.4,27.8,19.4,27.7z"/>
				<path class="st6" d="M22.4,27.1C22.4,27.1,22.4,27.1,22.4,27.1C22.4,27.1,22.4,27.1,22.4,27.1z"/>
				<polygon class="st6" points="21,27.9 21,27.9 21,27.9 				"/>
				<path class="st6" d="M24.1,27.1C24.1,27.1,24.1,27.1,24.1,27.1C24.1,27.1,24.1,27.1,24.1,27.1z"/>
				<path class="st6" d="M25.4,26.3L25.4,26.3C25.4,26.3,25.4,26.4,25.4,26.3C25.4,26.4,25.4,26.3,25.4,26.3z"/>
				<path class="st6" d="M25.6,27C25.6,27,25.6,27,25.6,27L25.6,27C25.6,27,25.5,27,25.6,27z"/>
				<path class="st6" d="M25.4,26.7C25.4,26.7,25.4,26.7,25.4,26.7C25.4,26.7,25.4,26.7,25.4,26.7C25.4,26.6,25.4,26.6,25.4,26.7z"
					/>
				<path class="st6" d="M25.4,26.7C25.4,26.7,25.4,26.7,25.4,26.7C25.5,26.7,25.4,26.7,25.4,26.7z"/>
				<path class="st6" d="M25.2,26.4C25.2,26.4,25.2,26.3,25.2,26.4C25.2,26.2,25.1,26.4,25.2,26.4z"/>
				<polygon class="st6" points="25.3,26.9 25.3,26.8 25.3,26.9 				"/>
				<path class="st6" d="M25.2,26.8L25.2,26.8C25.2,26.8,25.2,26.8,25.2,26.8C25.2,26.8,25.2,26.8,25.2,26.8z"/>
				<path class="st6" d="M25.2,26.8C25.2,26.8,25.2,26.8,25.2,26.8C25.2,26.8,25.2,26.8,25.2,26.8z"/>
				<polygon class="st6" points="25.3,27 25.3,26.9 25.2,26.9 				"/>
				<path class="st6" d="M24.8,26.7L24.8,26.7C24.7,26.8,24.7,26.8,24.8,26.7C24.7,26.8,24.8,26.8,24.8,26.7z"/>
				<path class="st6" d="M24.8,27C24.8,27,24.8,27,24.8,27L24.8,27L24.8,27z"/>
				<path class="st6" d="M24.7,27C24.7,27.1,24.6,27.1,24.7,27C24.7,27.1,24.7,27.1,24.7,27z"/>
				<polygon class="st6" points="24.1,26.8 24.1,26.8 24.1,26.6 				"/>
				<path class="st6" d="M23.6,27.3C23.6,27.3,23.6,27.1,23.6,27.3c0.1-0.1,0-0.1,0-0.2C23.6,27.1,23.6,27.1,23.6,27.3z"/>
				<path class="st6" d="M23.6,27.1C23.6,27.1,23.6,27.1,23.6,27.1C23.6,27.1,23.6,27.1,23.6,27.1z"/>
				<path class="st6" d="M18.3,29.5L18.3,29.5C18.3,29.5,18.3,29.5,18.3,29.5L18.3,29.5z"/>
				<path class="st6" d="M18.3,29.5L18.3,29.5C18.3,29.5,18.3,29.5,18.3,29.5C18.3,29.5,18.3,29.5,18.3,29.5z"/>
				<path class="st6" d="M21.9,27.6L21.9,27.6C21.9,27.6,21.9,27.6,21.9,27.6L21.9,27.6z"/>
				<polygon class="st6" points="21.5,27.7 21.5,27.7 21.5,27.6 				"/>
				<path class="st6" d="M21.3,27.9C21.3,27.9,21.3,27.9,21.3,27.9C21.3,27.9,21.2,27.8,21.3,27.9z"/>
			</g>
		</g>
	</g>
</g>
<g id="XMLID_19_">
	<g>
		<g>
			<path class="st9" d="M25.9,27.2c-0.4-0.3-0.9-0.5-1.4-0.7c-0.5-0.2-0.9-0.3-1.4-0.4c-0.4,0-0.8,0-1.2,0.1c-0.1,0,0.1,0.2,0.2,0.2
				c0.5-0.1,1-0.1,1.6,0c0.4,0.1,0.8,0.2,1.1,0.4c0.4,0.2,0.8,0.4,1.1,0.6c0,0,0.1,0,0.1-0.1C26,27.3,25.9,27.3,25.9,27.2z"/>
			<path class="st9" d="M25.9,27c-0.3-0.4-0.9-0.6-1.3-0.7c-0.5-0.2-0.9-0.3-1.4-0.3c-0.5,0-0.8,0-1.2,0.1c-0.1,0,0.1,0.4,0.2,0.4
				c0.5-0.1,1.1-0.1,1.6,0c0.4,0.1,0.8,0.2,1.1,0.4c0.4,0.2,0.8,0.3,1.1,0.6C26.1,27.5,25.9,27.1,25.9,27z"/>
			<path class="st9" d="M26,27.2c-0.3-0.1-0.5-0.3-0.7-0.4c-0.5-0.2-1-0.4-1.5-0.5c-0.6-0.1-1.1-0.1-1.7,0.1c0,0-0.1,0.1-0.1,0.1
				c1.1-0.3,1.8-0.1,2.8,0.3c0.3,0.1,0.9,0.3,1.1,0.6C25.9,27.3,26,27.2,26,27.2z"/>
			<path class="st9" d="M26,27.2c-0.4-0.3-0.9-0.5-1.3-0.7c-0.5-0.2-0.9-0.3-1.4-0.4c-0.4,0-0.8,0-1.2,0.1c-0.1,0-0.1,0.2,0,0.1
				c0.5-0.1,0.9-0.1,1.4-0.1c0.4,0.1,0.8,0.2,1.1,0.3c0.4,0.2,0.9,0.4,1.3,0.7C26,27.4,26.1,27.3,26,27.2z"/>
			<path class="st9" d="M25.7,27c-0.3-0.3-0.8-0.5-1.2-0.7c-0.4-0.2-0.9-0.3-1.4-0.4c-0.5-0.1-0.9,0-1.4,0.1c-0.2,0,0.2,0.4,0.3,0.4
				c0.7-0.2,1.4-0.1,2.1,0.1c0.4,0.1,0.7,0.3,1.1,0.5c0.2,0.1,0.4,0.2,0.6,0.4c0.1,0.1,0.1,0,0.1,0C25.9,27.2,25.7,27,25.7,27z"/>
			<path class="st9" d="M25.8,27.3c-0.3-0.3-0.7-0.5-1.1-0.6c-0.3-0.1-0.6-0.2-0.9-0.3c-0.7-0.2-1.3-0.2-1.9,0c0,0-0.1,0.2,0,0.1
				c0.6-0.2,1.2-0.2,1.9,0c0.7,0.2,1.4,0.5,2,0.9C25.8,27.4,25.9,27.3,25.8,27.3z"/>
			<path class="st9" d="M25.8,27.3c-0.4-0.3-0.8-0.5-1.2-0.7s-0.9-0.3-1.4-0.4c-0.5-0.1-0.9,0-1.4,0.1c-0.2,0,0.1,0.2,0.2,0.2
				c0.7-0.2,1.4-0.1,2.1,0.1c0.4,0.1,0.8,0.3,1.1,0.5c0.2,0.1,0.4,0.2,0.5,0.3c0,0,0.1,0.1,0.2,0.1C25.9,27.3,25.9,27.3,25.8,27.3z"
				/>
		</g>
	</g>
</g>
<g id="XMLID_20_">
	<g>
		<g>
			<path class="st9" d="M22.3,27.6c0-0.2-0.1-0.4-0.2-0.5c-0.6-0.5-1.7-0.1-2.3,0.1c-0.1,0,0.1,0.2,0.2,0.2c0.4-0.1,1-0.3,1.4-0.3
				c0.2,0,0.3,0.1,0.5,0.1c0.1,0,0.2,0.1,0.2,0.2C21.9,27.5,22.3,27.8,22.3,27.6z"/>
			<path class="st9" d="M22.3,27.6c0-0.2-0.1-0.5-0.2-0.7c-0.6-0.5-1.7-0.1-2.3,0.1c-0.1,0,0.1,0.4,0.2,0.3c0.6-0.2,1.8-0.6,2.2,0.1
				c0-0.1-0.1-0.2-0.1-0.3c0,0,0,0,0,0.1C21.9,27.4,22.2,27.7,22.3,27.6z"/>
			<path class="st9" d="M22.2,27.5c0,0,0-0.2,0-0.2c-0.1-0.2-0.3-0.3-0.5-0.3c-0.6-0.1-1.3,0.2-1.8,0.4c-0.1,0-0.1,0,0,0
				c0.7-0.4,1.4-0.5,2-0.2c0.2,0,0.3,0.2,0.3,0.4C22.1,27.5,22.2,27.5,22.2,27.5z"/>
			<path class="st9" d="M22.3,27.5c0.2-0.2-0.1-0.5-0.3-0.5c-0.6-0.3-1.5,0-2.1,0.2c-0.1,0-0.1,0.2,0,0.1c0.7-0.3,1.5-0.3,2.2,0.1
				C22.1,27.5,22.2,27.6,22.3,27.5z"/>
			<path class="st9" d="M22.2,27.5c0-0.2-0.1-0.4-0.2-0.6c-0.6-0.7-1.8-0.2-2.4,0c-0.1,0,0.2,0.4,0.3,0.3c0.6-0.2,1.7-0.6,2.2,0
				c0-0.1-0.1-0.1-0.1-0.2c0,0,0,0-0.1,0C21.7,27.1,22.2,27.7,22.2,27.5z"/>
			<path class="st9" d="M22.1,27.5c0.1-0.2-0.3-0.4-0.5-0.5c-0.6-0.2-1.3,0.1-1.9,0.3c0,0-0.1,0.2,0,0.1c0.5-0.2,2.1-0.9,2.3,0.1
				C22,27.6,22.1,27.5,22.1,27.5z"/>
			<path class="st9" d="M22.1,27.5c0-0.2-0.1-0.3-0.2-0.4c-0.6-0.5-1.7-0.1-2.3,0.1c-0.2,0.1,0.1,0.2,0.2,0.2
				c0.4-0.1,0.8-0.3,1.3-0.3c0.1,0,0.2,0,0.3,0c0.2,0,0.4,0.1,0.5,0.3C21.7,27.4,22.1,27.7,22.1,27.5z"/>
		</g>
	</g>
</g>
<g id="XMLID_29_">
	<g>
		<g>
			<path class="st9" d="M19.8,28.9c0-0.2-0.2-0.3-0.3-0.4c-0.3-0.2-0.6,0-0.9,0.2c-0.1,0.1,0.1,0.3,0.2,0.2c0.2-0.2,0.5-0.2,0.8-0.1
				c0,0-0.1-0.1-0.1-0.1c0,0,0,0,0,0.1C19.4,28.9,19.8,29,19.8,28.9z"/>
			<path class="st9" d="M19.8,28.9c0-0.2-0.1-0.4-0.2-0.5c-0.3-0.3-0.7,0-1,0.1c-0.1,0.1,0.1,0.4,0.2,0.3c0.1-0.1,0.3-0.2,0.5-0.2
				c0.2-0.1,0.3,0,0.4,0.2c0-0.1-0.1-0.2-0.1-0.3c0,0,0,0,0,0C19.4,28.7,19.8,29.1,19.8,28.9z"/>
			<path class="st9" d="M19.7,28.8c-0.1-0.1-0.1-0.2-0.2-0.2c-0.3-0.2-0.7,0-0.9,0.2c0,0,0,0,0,0c0.2-0.1,0.4-0.2,0.6-0.2
				c0.2-0.1,0.3,0,0.3,0.3c0,0,0,0,0,0C19.6,28.8,19.7,28.8,19.7,28.8z"/>
			<path class="st9" d="M19.8,28.8c0.1-0.2-0.1-0.3-0.2-0.4c-0.3-0.1-0.6,0.1-0.8,0.2c-0.1,0,0,0.1,0.1,0.1c0.2-0.2,0.3-0.2,0.5-0.1
				c0.2,0,0.3,0,0.3,0.1C19.6,28.8,19.7,28.9,19.8,28.8z"/>
			<path class="st9" d="M19.7,28.8c0-0.2-0.2-0.5-0.3-0.6c-0.3-0.2-0.7,0-0.9,0.2c-0.1,0,0.2,0.4,0.3,0.3c0.4-0.3,0.7-0.3,0.8,0
				c-0.1-0.1-0.1-0.2-0.2-0.3c0,0,0,0,0,0C19.1,28.5,19.7,28.9,19.7,28.8z"/>
			<path class="st9" d="M19.6,28.9c0.1-0.2,0-0.3-0.2-0.3c-0.3-0.1-0.6,0.1-0.8,0.2c0,0,0,0.2,0,0.1c0.2-0.1,0.4-0.3,0.6-0.2
				C19.3,28.7,19.5,28.7,19.6,28.9C19.5,29,19.6,28.9,19.6,28.9z"/>
			<path class="st9" d="M19.6,28.8c0-0.2-0.1-0.3-0.3-0.4c-0.3-0.2-0.6,0-0.9,0.2c-0.1,0.1,0.1,0.2,0.2,0.2c0.2,0,0.5-0.1,0.7-0.1
				C19.2,28.8,19.7,29,19.6,28.8z"/>
		</g>
	</g>
</g>
<path id="XMLID_31_" class="st8" d="M14.9,38c0,0,0.9-23.3,9.1-24.2c9.6-1.1,18.6-0.5,21.5,5.2S48.3,38,48.3,38s1.3-1.1,1.3-1.4
	c-0.1-0.2,0.5-1,0.9-0.8c0.4,0.3,2-1,1.9-1.2s0.2-0.7,0.2-0.7s0.6-0.3,0.4-0.8c-0.2-0.5-0.7-0.7-0.5-0.8c0.3-0.1,0.8,0,0.7-0.5
	c-0.1-0.5-0.2-0.6-0.5-0.7c-0.4-0.1,0.2-0.5,0.2-0.5s1-1.2,0-1.9c-1-0.7,0.1-1.9,0.1-1.9c0.1,0,0-1.4,0.4-1.4c0.4,0,0.8-1.5,0.7-1.8
	c-0.2-0.3-0.4-1.5,0-1.5c0.4,0,0.2-1.3-0.4-1.7c-0.6-0.4-0.4-1.3-0.2-1.4c0.2,0,1-1.9,0.4-2.6c-0.6-0.7-2-0.1-2-0.1s1.7-3.3,1.2-4.3
	s-1.6-3-2.8-2c-1.1,1-2-1.1-2-1.1S46,7.2,45,7.8s-1.3-1.1-1.3-1.1s-1.9-3.3-6.3-4.2s-2-1.7-7.9-1.4s-8.8,3-8.8,3s-5,3.3-5,3.9
	c-0.1,0.6-3.6,2.7-3.6,2.7s-1.3,0.9-0.6,1.4s-1,1.5-1,1.5s-1.2,2.9-0.7,4.4c0.5,1.5,0.2,3.7,1.2,5.3c1,1.6-0.9,4.7-0.9,4.7
	s-0.1,1.4,0.8,1.9c0.9,0.5-0.7,2.4-0.7,2.4s-0.6,1.5,2.1,1.9s1,0.7,1,0.7S13.3,37.8,14.9,38z"/>
<g id="XMLID_32_">
	<path id="XMLID_91_" class="st10" d="M24,3.4c0,0,0.2,0,0.6,0c0.4,0,1,0.1,1.7,0.2c0.7,0.1,1.5,0.3,2.4,0.5
		c0.4,0.1,0.9,0.2,1.3,0.4c0.4,0.1,0.9,0.3,1.3,0.5c0.4,0.2,0.9,0.4,1.3,0.6c0.4,0.2,0.8,0.5,1.1,0.8c0.3,0.3,0.7,0.6,0.9,1
		c0.2,0.3,0.4,0.7,0.5,1.1c0.1,0.4,0.1,0.7,0,1c-0.1,0.3-0.1,0.5-0.2,0.7c-0.1,0.2-0.2,0.3-0.2,0.4c-0.1,0.1-0.1,0.1-0.1,0.1
		s0-0.1,0.1-0.2c0-0.1,0.1-0.3,0.2-0.4C34.9,10,35,9.7,35,9.4c0-0.3,0-0.6-0.1-0.9c-0.1-0.3-0.3-0.7-0.5-1c-0.2-0.3-0.5-0.6-0.9-0.9
		c-0.3-0.3-0.7-0.5-1.1-0.7s-0.8-0.4-1.2-0.6c-0.4-0.2-0.9-0.3-1.3-0.5c-0.4-0.1-0.9-0.3-1.3-0.4c-0.8-0.2-1.6-0.4-2.3-0.6
		c-0.7-0.2-1.3-0.3-1.7-0.4C24.2,3.5,24,3.4,24,3.4z"/>
</g>
<g id="XMLID_39_">
	<path id="XMLID_89_" class="st11" d="M19.2,5.7c0,0,0.2-0.1,0.7-0.2c0.2-0.1,0.5-0.2,0.8-0.2c0.3-0.1,0.7-0.2,1-0.3
		c0.4-0.1,0.8-0.2,1.3-0.2c0.4-0.1,0.9-0.1,1.4-0.1c0.5,0,1,0,1.5,0c0.3,0,0.5,0.1,0.8,0.1c0.3,0,0.5,0.1,0.8,0.2s0.5,0.1,0.8,0.2
		l0.4,0.1l0.2,0.1L29,5.5c0.1,0.1,0.2,0.1,0.4,0.2c0.1,0.1,0.2,0.1,0.3,0.2c0.2,0.1,0.4,0.3,0.6,0.4l0.2,0.1l0.1,0.1
		c0.1,0.1,0.2,0.2,0.3,0.2c0.2,0.2,0.3,0.3,0.5,0.5c0.1,0.2,0.3,0.4,0.4,0.5C31.9,8,32,8.1,32.1,8.3c0.1,0.2,0.2,0.3,0.3,0.5
		c0.1,0.2,0.2,0.3,0.2,0.5c0.1,0.3,0.2,0.6,0.3,0.8c0.1,0.4,0.2,0.7,0.2,0.7s-0.1-0.2-0.3-0.7c-0.1-0.2-0.2-0.5-0.3-0.7
		c-0.1-0.1-0.2-0.3-0.2-0.4c-0.1-0.2-0.2-0.3-0.3-0.5c-0.1-0.2-0.2-0.3-0.3-0.5c-0.1-0.2-0.3-0.3-0.4-0.5C31,7.3,30.8,7.1,30.7,7
		c-0.1-0.1-0.2-0.1-0.3-0.2l-0.1-0.1l-0.1-0.1c-0.2-0.1-0.4-0.3-0.6-0.4c-0.1-0.1-0.2-0.1-0.3-0.2c-0.1-0.1-0.2-0.1-0.3-0.2
		l-0.2-0.1l-0.2-0.1l-0.4-0.1c-0.2-0.1-0.5-0.2-0.7-0.2c-0.2-0.1-0.5-0.1-0.7-0.2c-0.3,0-0.5-0.1-0.8-0.1c-0.3,0-0.5,0-0.7-0.1
		c-0.2,0-0.5,0-0.7,0c-0.5,0-0.9,0-1.4,0.1c-0.4,0-0.9,0.1-1.2,0.1c-0.4,0.1-0.7,0.1-1,0.2c-0.3,0.1-0.6,0.1-0.8,0.2
		C19.5,5.7,19.2,5.7,19.2,5.7z"/>
</g>
<g id="XMLID_40_">
	<path id="XMLID_87_" class="st12" d="M16.5,11.6c0,0,0.2-0.2,0.5-0.5c0.4-0.3,0.9-0.7,1.5-1.2c0.3-0.2,0.7-0.5,1.1-0.7
		C20,9,20.4,8.7,20.9,8.5c0.4-0.2,0.9-0.4,1.4-0.6c0.3-0.1,0.5-0.2,0.8-0.3c0.1,0,0.3-0.1,0.4-0.1l0.4-0.1c0.1,0,0.3-0.1,0.4-0.1
		c0.1,0,0.3,0,0.4-0.1c0.3,0,0.5-0.1,0.8,0c0.5,0,1.1,0.1,1.6,0.3c0.2,0.1,0.5,0.2,0.7,0.3c0.1,0.1,0.2,0.1,0.3,0.2
		c0.1,0.1,0.2,0.1,0.3,0.2c0.2,0.1,0.3,0.3,0.5,0.5C29,8.8,29.1,9,29.2,9.1c0.1,0.1,0.1,0.2,0.2,0.2c0,0.1,0.1,0.2,0.1,0.2
		c0.1,0.2,0.2,0.3,0.2,0.5c0.1,0.2,0.1,0.3,0.2,0.4c0.1,0.1,0.1,0.2,0.1,0.4c0.1,0.4,0.2,0.7,0.2,0.7s-0.1-0.2-0.3-0.7
		c0-0.1-0.1-0.2-0.2-0.3c-0.1-0.1-0.1-0.3-0.2-0.4c-0.1-0.1-0.2-0.3-0.3-0.4c-0.1-0.1-0.1-0.2-0.2-0.2c-0.1-0.1-0.1-0.1-0.2-0.2
		c-0.1-0.1-0.2-0.3-0.4-0.4c-0.2-0.1-0.3-0.3-0.5-0.4c-0.1-0.1-0.2-0.1-0.3-0.2c-0.1-0.1-0.2-0.1-0.3-0.2c-0.2-0.1-0.4-0.2-0.7-0.3
		c-0.5-0.1-1-0.2-1.5-0.2c-0.3,0-0.5,0-0.8,0c-0.1,0-0.3,0-0.4,0.1c-0.1,0-0.3,0-0.4,0.1l-0.4,0.1c-0.1,0-0.3,0.1-0.4,0.1
		c-0.3,0.1-0.5,0.2-0.7,0.2c-0.2,0.1-0.5,0.2-0.7,0.3c-0.2,0.1-0.5,0.2-0.7,0.3c-0.4,0.2-0.9,0.4-1.3,0.7c-0.4,0.2-0.8,0.4-1.1,0.6
		c-0.7,0.4-1.2,0.8-1.6,1.1C16.7,11.4,16.5,11.6,16.5,11.6z"/>
</g>
<g id="XMLID_41_">
	<path id="XMLID_85_" class="st12" d="M11.6,16.3c0,0,0.1-0.1,0.3-0.3c0.2-0.2,0.4-0.4,0.8-0.7c0.2-0.1,0.4-0.3,0.6-0.4
		c0.2-0.1,0.4-0.3,0.7-0.4c0.2-0.1,0.5-0.2,0.8-0.3c0.3-0.1,0.6-0.1,0.8-0.2c0.3,0,0.6,0,0.9,0l0.2,0c0.1,0,0.1,0,0.2,0
		c0.1,0,0.3,0.1,0.4,0.1c0.3,0.1,0.5,0.2,0.7,0.3c0.1,0,0.1,0,0.2,0.1c0.1,0,0.1,0.1,0.2,0.1c0.1,0.1,0.2,0.1,0.3,0.2
		c0.2,0.1,0.4,0.2,0.5,0.3c0.1,0.1,0.3,0.2,0.4,0.3c0.2,0.2,0.3,0.3,0.3,0.3s-0.1-0.1-0.3-0.2c-0.1-0.1-0.2-0.2-0.4-0.2
		c-0.1-0.1-0.3-0.2-0.5-0.3c-0.1-0.1-0.2-0.1-0.3-0.1c-0.1,0-0.1,0-0.2-0.1c-0.1,0-0.1,0-0.2-0.1c-0.1,0-0.2-0.1-0.4-0.1
		c-0.1,0-0.2-0.1-0.4-0.1c-0.1,0-0.3-0.1-0.4-0.1c-0.1,0-0.3,0-0.4,0c-0.3,0-0.6,0-0.8,0c-0.3,0-0.6,0.1-0.8,0.2
		c-0.3,0.1-0.5,0.2-0.8,0.3c-0.5,0.2-0.9,0.5-1.2,0.7c-0.3,0.2-0.6,0.5-0.8,0.7C11.7,16.2,11.6,16.3,11.6,16.3z"/>
</g>
<g id="XMLID_45_">
	<path id="XMLID_93_" class="st10" d="M29.9,2.4c0,0,0.2,0,0.6,0c0.4,0,0.9,0.1,1.6,0.2c0.3,0,0.7,0.1,1,0.2
		c0.4,0.1,0.8,0.2,1.2,0.3c0.2,0.1,0.4,0.1,0.6,0.2c0.2,0.1,0.4,0.1,0.6,0.2c0.2,0.1,0.4,0.2,0.6,0.3c0.2,0.1,0.4,0.2,0.6,0.3
		c0.4,0.2,0.8,0.5,1.1,0.8C37.8,4.8,37.9,4.9,38,5l0.1,0.1l0.1,0.1c0.1,0.1,0.1,0.2,0.2,0.3c0.1,0.1,0.1,0.2,0.2,0.3
		c0.1,0.1,0.1,0.2,0.1,0.3c0,0.1,0.1,0.2,0.1,0.3c0,0.2,0.1,0.4,0.1,0.6c0,0.1,0,0.2,0,0.3c0,0.1,0,0.2,0,0.3c0,0.1,0,0.2,0,0.3
		c0,0.1,0,0.2-0.1,0.3c0,0.1,0,0.2-0.1,0.2c0,0.1-0.1,0.1-0.1,0.2c-0.1,0.1-0.1,0.3-0.2,0.4c-0.1,0.2-0.2,0.4-0.3,0.6
		C38,9.8,37.9,10,37.9,10s0.1-0.2,0.3-0.5c0.1-0.2,0.2-0.4,0.3-0.6c0-0.1,0.1-0.3,0.1-0.4c0-0.1,0-0.1,0.1-0.2c0-0.1,0-0.2,0-0.2
		c0-0.1,0-0.2,0-0.2c0-0.1,0-0.2,0-0.2c0-0.1,0-0.2,0-0.3c0-0.1,0-0.2,0-0.3c0-0.2-0.1-0.3-0.1-0.5c0-0.1-0.1-0.2-0.1-0.3
		c0-0.1-0.1-0.2-0.1-0.3c-0.2-0.3-0.5-0.6-0.8-0.9c-0.3-0.3-0.7-0.5-1-0.7c-0.2-0.1-0.4-0.2-0.6-0.3c-0.2-0.1-0.4-0.2-0.6-0.3
		c-0.4-0.2-0.8-0.3-1.2-0.4C33.8,3.2,33.4,3.1,33,3c-0.4-0.1-0.7-0.2-1-0.2c-0.3-0.1-0.6-0.1-0.9-0.2c-0.3-0.1-0.5-0.1-0.7-0.1
		C30.1,2.4,29.9,2.4,29.9,2.4z"/>
</g>
<g id="XMLID_46_">
	<path id="XMLID_95_" class="st11" d="M38.6,2.8c0,0,0.5,0.4,1.3,1c0.4,0.3,0.8,0.7,1.2,1.2c0.2,0.2,0.4,0.5,0.6,0.7
		c0.2,0.3,0.4,0.5,0.5,0.8c0.2,0.3,0.3,0.6,0.5,0.9c0.1,0.3,0.3,0.6,0.3,0.9c0,0.2,0.1,0.3,0.1,0.4c0,0.1,0,0.1,0,0.2
		c0,0.1,0,0.1,0,0.2c0,0.3,0,0.6,0,0.8c0,0.1,0,0.2-0.1,0.4c0,0.1-0.1,0.2-0.1,0.3c-0.1,0.2-0.1,0.3-0.2,0.5
		c-0.1,0.1-0.1,0.2-0.2,0.3c0,0.1-0.1,0.1-0.1,0.1s0,0,0-0.1c0-0.1,0.1-0.2,0.1-0.3c0-0.1,0.1-0.3,0.1-0.5c0-0.1,0-0.2,0-0.3
		c0-0.1,0-0.2,0-0.3c0-0.1,0-0.2,0-0.4c0-0.1,0-0.3-0.1-0.4c0-0.1,0-0.1,0-0.2c0-0.1,0-0.1-0.1-0.2c0-0.1-0.1-0.3-0.1-0.4
		c0-0.1-0.1-0.3-0.2-0.4c-0.1-0.1-0.1-0.3-0.2-0.4c-0.1-0.3-0.3-0.6-0.5-0.8c-0.2-0.3-0.3-0.5-0.5-0.8c-0.2-0.3-0.4-0.5-0.5-0.7
		c-0.2-0.2-0.4-0.5-0.5-0.7c-0.2-0.2-0.3-0.4-0.5-0.6C39.1,3.3,38.6,2.8,38.6,2.8z"/>
</g>
<g id="XMLID_47_">
	<path id="XMLID_101_" class="st10" d="M46.7,15.8c0,0,0.4,0.1,1.1,0.4c0.3,0.1,0.7,0.2,1.1,0.4c0.2,0.1,0.4,0.1,0.6,0.2
		c0.2,0.1,0.4,0.1,0.7,0.2c0.4,0.1,0.9,0.2,1.3,0.3c0.2,0,0.4,0,0.6,0.1c0.2,0,0.4,0,0.5,0c0.2,0,0.3,0,0.5-0.1
		c0.1,0,0.2-0.1,0.3-0.1c0.1,0,0.2-0.1,0.2-0.1c0.1,0,0.1,0,0.1,0s0,0-0.1,0.1c0,0-0.1,0.1-0.2,0.1c-0.1,0.1-0.2,0.1-0.3,0.2
		c-0.1,0-0.1,0.1-0.2,0.1c-0.1,0-0.2,0-0.2,0.1c-0.1,0-0.2,0-0.3,0c-0.1,0-0.2,0-0.3,0c-0.2,0-0.4,0-0.6,0c-0.2,0-0.4,0-0.7-0.1
		c-0.2,0-0.5-0.1-0.7-0.1c-0.5-0.1-0.9-0.3-1.3-0.4c-0.2-0.1-0.4-0.2-0.6-0.2c-0.2-0.1-0.4-0.2-0.5-0.2
		C47.1,16.1,46.7,15.8,46.7,15.8z"/>
</g>
<g id="XMLID_48_">
	<path id="XMLID_99_" class="st10" d="M53.7,16.9C53.7,16.9,53.7,17,53.7,16.9c0,0.1,0,0.2,0,0.2c0,0,0,0.1,0,0.1
		c0,0.1,0,0.1-0.1,0.2c0,0.1-0.1,0.1-0.1,0.2c-0.1,0.1-0.2,0.2-0.4,0.4c-0.1,0.1-0.2,0.1-0.3,0.1c-0.1,0-0.2,0.1-0.3,0.1
		c-0.2,0.1-0.4,0.1-0.6,0.2c-0.2,0.1-0.5,0.1-0.7,0.1c-0.2,0-0.5,0.1-0.7,0.1c-0.2,0-0.5,0-0.7,0c-0.2,0-0.5,0-0.7,0
		c-0.5,0-0.9-0.1-1.2-0.1c-0.7-0.1-1.2-0.2-1.2-0.2s0.5,0,1.2,0c0.4,0,0.8,0,1.2,0c0.2,0,0.5,0,0.7,0c0.2,0,0.5,0,0.7,0
		c0.2,0,0.5,0,0.7-0.1c0.2,0,0.5,0,0.7-0.1c0.2,0,0.4-0.1,0.6-0.1c0.2-0.1,0.4-0.1,0.5-0.2c0.2-0.1,0.3-0.2,0.4-0.3
		c0.1,0,0.1-0.1,0.1-0.1c0,0,0.1-0.1,0.1-0.1c0,0,0-0.1,0.1-0.1C53.7,17.1,53.7,17.1,53.7,16.9C53.7,17,53.7,16.9,53.7,16.9z"/>
</g>
<g id="XMLID_49_">
	<path id="XMLID_97_" class="st10" d="M47.2,19.5c0,0,0.5,0,1.2,0c0.4,0,0.8,0,1.2-0.1c0.2,0,0.4,0,0.7-0.1c0.2,0,0.5-0.1,0.7-0.1
		c0.2,0,0.5-0.1,0.7-0.2c0.2-0.1,0.4-0.1,0.6-0.2c0.2-0.1,0.4-0.2,0.5-0.3c0.1-0.1,0.2-0.1,0.2-0.2c0,0,0.1-0.1,0.1-0.1
		c0,0,0.1-0.1,0.1-0.1c0.1-0.1,0.1-0.1,0.2-0.2c0,0,0-0.1,0.1-0.1c0,0,0-0.1,0.1-0.1c0.1-0.1,0.1-0.2,0.2-0.3c0-0.1,0.1-0.2,0.1-0.2
		c0-0.1,0-0.1,0-0.1s0,0,0,0.1c0,0.1,0,0.1,0,0.2c0,0.1,0,0.2-0.1,0.4c0,0,0,0.1,0,0.1c0,0,0,0.1-0.1,0.1c0,0.1-0.1,0.2-0.1,0.2
		c0,0-0.1,0.1-0.1,0.1c0,0-0.1,0.1-0.1,0.1c-0.1,0.1-0.1,0.2-0.2,0.2c-0.2,0.1-0.4,0.3-0.6,0.4c-0.2,0.1-0.4,0.2-0.7,0.3
		c-0.2,0.1-0.5,0.1-0.7,0.2c-0.2,0-0.5,0.1-0.7,0.1c-0.2,0-0.5,0-0.7,0c-0.2,0-0.4,0-0.7,0c-0.2,0-0.4,0-0.6,0
		C47.7,19.7,47.2,19.5,47.2,19.5z"/>
</g>
</svg>
